<svg xmlns="http://www.w3.org/2000/svg" xmlns:xlink="http://www.w3.org/1999/xlink" width="108" height="99" viewBox="0 0 108 99">
  <defs>
    <clipPath id="clip-path">
      <rect id="Rectangle_24" data-name="Rectangle 24" width="108" height="99" transform="translate(926 3698)" fill="#fff" stroke="#707070" stroke-width="1"/>
    </clipPath>
  </defs>
  <g id="Mask_Group_5" data-name="Mask Group 5" transform="translate(-926 -3698)" clip-path="url(#clip-path)">
    <path id="twitter" d="M96.9,32c.069.959.069,1.919.069,2.878,0,29.261-22.272,62.977-62.977,62.977A62.55,62.55,0,0,1,0,87.922a45.791,45.791,0,0,0,5.345.274,44.329,44.329,0,0,0,27.48-9.457,22.174,22.174,0,0,1-20.7-15.35,27.914,27.914,0,0,0,4.18.343,23.41,23.41,0,0,0,5.825-.754A22.138,22.138,0,0,1,4.386,41.254V40.98A22.292,22.292,0,0,0,14.391,43.79a22.168,22.168,0,0,1-6.853-29.6,62.917,62.917,0,0,0,45.64,23.163,24.987,24.987,0,0,1-.548-5.071A22.156,22.156,0,0,1,90.937,17.132a43.579,43.579,0,0,0,14.048-5.345,22.075,22.075,0,0,1-9.731,12.2A44.373,44.373,0,0,0,108,20.559,47.581,47.581,0,0,1,96.9,32Z" transform="translate(926 3693.5)" fill="#fff"/>
  </g>
</svg>
