<svg xmlns="http://www.w3.org/2000/svg" xmlns:xlink="http://www.w3.org/1999/xlink" width="120" height="99" viewBox="0 0 120 99">
  <defs>
    <clipPath id="clip-path">
      <rect id="Rectangle_23" data-name="Rectangle 23" width="120" height="99" transform="translate(747 3698)" fill="#fff" stroke="#707070" stroke-width="1"/>
    </clipPath>
  </defs>
  <g id="Mask_Group_6" data-name="Mask Group 6" transform="translate(-747 -3698)" clip-path="url(#clip-path)">
    <path id="instagram" d="M49.506,31.148A25.382,25.382,0,1,0,74.888,56.53,25.342,25.342,0,0,0,49.506,31.148Zm0,41.884a16.5,16.5,0,1,1,16.5-16.5,16.532,16.532,0,0,1-16.5,16.5ZM81.846,30.11a5.92,5.92,0,1,1-5.92-5.92A5.907,5.907,0,0,1,81.846,30.11Zm16.811,6.009c-.376-7.931-2.187-14.955-8-20.743-5.788-5.788-12.813-7.6-20.743-8-8.174-.464-32.672-.464-40.846,0-7.909.376-14.933,2.187-20.743,7.975S.729,28.166.331,36.1c-.464,8.174-.464,32.672,0,40.846.376,7.931,2.187,14.955,8,20.743s12.813,7.6,20.743,8c8.174.464,32.672.464,40.846,0,7.931-.376,14.955-2.187,20.743-8,5.788-5.788,7.6-12.813,8-20.743.464-8.174.464-32.65,0-40.824ZM88.1,85.712a16.707,16.707,0,0,1-9.411,9.411c-6.517,2.585-21.98,1.988-29.182,1.988s-22.687.574-29.182-1.988a16.707,16.707,0,0,1-9.411-9.411C8.328,79.2,8.925,63.732,8.925,56.53S8.35,33.843,10.913,27.348a16.707,16.707,0,0,1,9.411-9.411C26.84,15.353,42.3,15.95,49.506,15.95s22.687-.574,29.182,1.988A16.707,16.707,0,0,1,88.1,27.348c2.585,6.517,1.988,21.98,1.988,29.182S90.683,79.218,88.1,85.712Z" transform="translate(757.505 3690.969)" fill="#fff"/>
  </g>
</svg>
