<svg xmlns="http://www.w3.org/2000/svg" xmlns:xlink="http://www.w3.org/1999/xlink" width="651" height="733" viewBox="0 0 651 733">
  <defs>
    <clipPath id="clip-path">
      <rect id="Rectangle_6" data-name="Rectangle 6" width="651" height="733" transform="translate(205 1285.299)" fill="#fff" stroke="#707070" stroke-width="1"/>
    </clipPath>
    <linearGradient id="linear-gradient" x1="0.568" y1="1.455" x2="0.306" y2="-0.926" gradientUnits="objectBoundingBox">
      <stop offset="0.02" stop-color="#68e1fd"/>
      <stop offset="1" stop-color="#fff" stop-opacity="0"/>
    </linearGradient>
    <linearGradient id="linear-gradient-2" x1="0.418" y1="-0.169" x2="1.042" y2="3.913" gradientUnits="objectBoundingBox">
      <stop offset="0" stop-color="#fff" stop-opacity="0"/>
      <stop offset="0.99" stop-color="#fff"/>
    </linearGradient>
    <linearGradient id="linear-gradient-3" x1="0.499" y1="0.575" x2="0.503" y2="-0.668" xlink:href="#linear-gradient-2"/>
    <linearGradient id="linear-gradient-4" x1="0.67" y1="-15.577" x2="0.481" y2="2.316" gradientUnits="objectBoundingBox">
      <stop offset="0.17" stop-color="#00272e"/>
      <stop offset="1" stop-color="#69b9eb" stop-opacity="0"/>
    </linearGradient>
    <linearGradient id="linear-gradient-5" x1="0.492" y1="-3.23" x2="0.505" y2="2.811" xlink:href="#linear-gradient-4"/>
    <linearGradient id="linear-gradient-6" x1="0.505" y1="-0.796" x2="0.489" y2="3.256" xlink:href="#linear-gradient-2"/>
    <linearGradient id="linear-gradient-7" x1="-0.47" y1="0.485" x2="0.46" y2="0.499" gradientUnits="objectBoundingBox">
      <stop offset="0.18" stop-color="#00272e"/>
      <stop offset="1" stop-color="#69b9eb" stop-opacity="0"/>
    </linearGradient>
    <linearGradient id="linear-gradient-8" x1="1.142" y1="0.564" x2="-0.413" y2="0.403" gradientUnits="objectBoundingBox">
      <stop offset="0" stop-color="#68e1fd"/>
      <stop offset="1" stop-color="#fff"/>
    </linearGradient>
    <linearGradient id="linear-gradient-9" x1="1.013" y1="0.556" x2="-0.016" y2="0.439" xlink:href="#linear-gradient-8"/>
    <linearGradient id="linear-gradient-10" x1="0.973" y1="0.5" x2="-0.199" y2="0.5" xlink:href="#linear-gradient-2"/>
    <linearGradient id="linear-gradient-11" y1="0.5" x2="1" y2="0.5" gradientUnits="objectBoundingBox">
      <stop offset="0" stop-color="#68e1fd"/>
      <stop offset="1" stop-color="#69b9eb"/>
    </linearGradient>
    <linearGradient id="linear-gradient-13" x1="0" y1="0.504" x2="1" y2="0.504" xlink:href="#linear-gradient-11"/>
    <linearGradient id="linear-gradient-14" x1="0.313" y1="1.209" x2="0.763" y2="-0.301" xlink:href="#linear-gradient-2"/>
    <linearGradient id="linear-gradient-15" x1="0.653" y1="0.029" x2="0.281" y2="1.407" gradientUnits="objectBoundingBox">
      <stop offset="0.02" stop-color="#68e1fd"/>
      <stop offset="1" stop-color="#fff"/>
    </linearGradient>
    <linearGradient id="linear-gradient-16" x1="1.11" y1="0.56" x2="-0.361" y2="0.414" gradientUnits="objectBoundingBox">
      <stop offset="0" stop-color="#ecc4d7"/>
      <stop offset="0.42" stop-color="#efd4d1"/>
      <stop offset="1" stop-color="#f2eac9"/>
    </linearGradient>
    <linearGradient id="linear-gradient-17" x1="49.943" y1="-108.962" x2="48.14" y2="-109.164" xlink:href="#linear-gradient-16"/>
    <linearGradient id="linear-gradient-18" x1="-5.247" y1="22.794" x2="-4.522" y2="22.794" xlink:href="#linear-gradient-16"/>
    <linearGradient id="linear-gradient-19" x1="-6.15" y1="36.561" x2="-7.761" y2="39.789" xlink:href="#linear-gradient-16"/>
    <linearGradient id="linear-gradient-20" x1="-3.553" y1="13.535" x2="-2.59" y2="13.535" xlink:href="#linear-gradient-16"/>
    <linearGradient id="linear-gradient-21" x1="-0.001" y1="0.501" x2="0.998" y2="0.501" xlink:href="#linear-gradient-16"/>
    <linearGradient id="linear-gradient-22" x1="0.001" y1="0.5" x2="1" y2="0.5" gradientUnits="objectBoundingBox">
      <stop offset="0" stop-color="#183866"/>
      <stop offset="1" stop-color="#1a7fc1"/>
    </linearGradient>
    <linearGradient id="linear-gradient-23" x1="0" y1="0.501" x2="1" y2="0.501" xlink:href="#linear-gradient-16"/>
    <linearGradient id="linear-gradient-24" x1="0.246" y1="0.249" x2="1.248" y2="1.76" xlink:href="#linear-gradient-2"/>
    <linearGradient id="linear-gradient-25" x1="-0.003" y1="0.5" x2="1" y2="0.5" xlink:href="#linear-gradient-16"/>
  </defs>
  <g id="Mask_Group_2" data-name="Mask Group 2" transform="translate(-205 -1285.299)" clip-path="url(#clip-path)">
    <g id="book-lovers" transform="translate(205 1395.039)">
      <path id="Path_5" data-name="Path 5" d="M235.657,37.468c-17.086,16.921-29.75,38.671-47.9,54.233-30.7,26.365-72.364,31.607-108.465,48.39-23.88,11.1-46.522,28.694-57.087,54.139-8.563,20.564-7.453,44.935,1.415,65.31a68.406,68.406,0,0,1-3.683,61.521c-13.146,22.257-21.074,47.685-19.8,73.8,1.978,40.166,30.513,79.79,67.99,83.486,12.865,1.272,25.794-1.521,38.53-4.013C183.579,459.3,265,455.412,338.164,484.879c20.053,8.078,39.358,18.6,60.207,23.916,24.354,6.2,49.746,5.027,74.776,3.815,39.06-1.891,84.634-7.734,104.582-43.689,27.651-49.842-16.394-112.068-10.131-169.609,3.465-31.8,22.224-59.759,26.18-91.46,4.294-34.46-10.991-70.888-37.927-90.378-37.4-27.061-89.128-20.5-127.746-45.545C397.551,52.1,376.549,13.364,340.528,2.819,305.2-7.51,261.37,11.989,235.657,37.468Z" transform="translate(-0.002 0.002)" fill="#68e1fd" opacity="0.18"/>
      <path id="Path_6" data-name="Path 6" d="M63.05,349.158c-3.779-27.731-12.792-54.431-16.443-82.188s-1.11-58.281,15.526-79.962c10.855-14.119,26.453-22.927,41.706-31.186,13.564-7.347,27.53-14.669,42.614-16.663,13.3-1.719,26.718.73,40.017,2.432,25.022,3.2,50.5,3.618,75.339-.937,32.427-5.955,63.085-19.713,94.773-29.072,31.044-9.161,61.775-13.827,96.485,3.437,23.993,11.945,41.7,36.883,47.439,64.451,9.279,44.54-11.675,93.9,5.942,135.459,4.969,11.7,12.688,21.793,18.991,32.741a148.378,148.378,0,0,1,16.547,43.741c1.1,5.319,1.914,10.931.507,16.164-3.618,13.406-19.12,17.866-32.162,18.966C466.97,430.2,423.648,421.558,380.4,416.53c-70.209-8.147-141.053-6.712-211.383-1.1q-25.826,2.063-51.6,4.812c-13.87,1.452-40.2,10.312-53.276,6.093-14.577-4.718-5.009-14.935-1.922-29.6,3.321-15.528,2.975-31.9.836-47.573Z" transform="translate(10.051 34.466)" fill="url(#linear-gradient)"/>
      <path id="Path_7" data-name="Path 7" d="M256.03,88.385s-6.649,28.891-16.587,36.952c-10.26,8.318-20.905-7.665-20.905-7.665l-5.918,11.447s10.959,18.906,22.007,19.344,20.744-10.132,20.744-10.132Z" transform="translate(52.712 29.503)" fill="#68e1fd"/>
      <path id="Path_8" data-name="Path 8" d="M201.905,73.687l1.5-.713,30.65,8.327,9.206,66.342h-1.15Z" transform="translate(50.056 24.359)" fill="#3f3d56"/>
      <path id="Path_9" data-name="Path 9" d="M101.081,343.379s-66.856,4.787-76.473,11.636,65.69,8.353,185.855,4.494,212.686,0,278.2,7.064,154.376,5.7,155.607-11.6-162.216-17.5-162.216-17.5Z" transform="translate(5.895 112.637)" fill="#000405" opacity="0.05"/>
      <path id="Path_10" data-name="Path 10" d="M436.47,260.9s-2.243,19.954-16.668,21.913H356.46L347.447,172h66.736c5.387,0,16.427,6.2,18.63,14.987a40.387,40.387,0,0,1,.587,4.924c1.447,17.041,3.071,69,3.071,69Z" transform="translate(86.14 57.409)" fill="#68e1fd"/>
      <path id="Path_11" data-name="Path 11" d="M433.161,191.957H372.053l-18.139-19.026-.836-.9h60.866c5.387,0,16.427,6.2,18.63,14.987A40.4,40.4,0,0,1,433.161,191.957Z" transform="translate(86.394 57.377)" fill="url(#linear-gradient-2)"/>
      <path id="Path_12" data-name="Path 12" d="M93.9,182.311l-5.966-2.776a4.006,4.006,0,0,1-2.136-4.412,3.75,3.75,0,0,1,3.608-3.133H412.336a25.9,25.9,0,0,1,20.849,10.484,20.661,20.661,0,0,1,4.02,9.453c1.455,10.372.563,55.548.161,72.512-.217,9.212-6.569,17.144-15.124,18.287l-.917.095H108.552Z" transform="translate(21.251 57.407)" fill="#68e1fd"/>
      <path id="Path_13" data-name="Path 13" d="M93.9,182.311l-5.966-2.776a4.006,4.006,0,0,1-2.136-4.412,3.75,3.75,0,0,1,3.608-3.133H412.336a25.9,25.9,0,0,1,20.849,10.484,20.661,20.661,0,0,1,4.02,9.453c1.455,10.372.563,55.548.161,72.512-.217,9.212-6.569,17.144-15.124,18.287l-.917.095H108.552Z" transform="translate(21.251 57.407)" fill="#68e1fd"/>
      <path id="Path_14" data-name="Path 14" d="M438.3,264.471c-.217,9.212-6.569,17.144-15.124,18.287l-.917.095H109.491L94.817,182.343l-5.966-2.776a4.006,4.006,0,0,1-2.136-4.412,3.75,3.75,0,0,1,3.608-3.133H413.251A25.9,25.9,0,0,1,434.1,182.507a20.661,20.661,0,0,1,4.02,9.453c1.479,10.372.587,55.548.185,72.512Z" transform="translate(20.336 57.374)" fill="url(#linear-gradient-3)"/>
      <path id="Path_15" data-name="Path 15" d="M81.11,257.55H425.884a4.818,4.818,0,0,0,0-9.616H81.11a4.818,4.818,0,0,0,0,9.616Z" transform="translate(17.849 82.711)" opacity="0.61" fill="url(#linear-gradient-4)"/>
      <path id="Path_16" data-name="Path 16" d="M80.2,257.518H424.969a4.818,4.818,0,0,0,0-9.616H80.2a4.818,4.818,0,0,0,0,9.616ZM495.717,289.09V349.2c0,16.335-12.384,29.579-27.667,29.579H104.3a26.755,26.755,0,0,1-19.578-8.651A30.593,30.593,0,0,1,76.633,349.2V289.09a30.894,30.894,0,0,1,4.1-15.468,27.374,27.374,0,0,1,1.946-2.956A26.987,26.987,0,0,1,104.3,259.538H468.05c15.286,0,27.676,13.249,27.667,29.587Z" transform="translate(18.764 82.743)" fill="#68e1fd"/>
      <path id="Path_17" data-name="Path 17" d="M354.3,350.386H104.533c-10.833,0-20.672-6.75-25.175-17.281H338.414S342.144,347.713,354.3,350.386Z" transform="translate(18.531 111.138)" opacity="0.61" fill="url(#linear-gradient-5)"/>
      <path id="Path_18" data-name="Path 18" d="M353.982,256.632c-11.482,2.028-14.69,14.085-14.69,14.085H80.647l1.946-2.956a26.987,26.987,0,0,1,21.621-11.129Z" transform="translate(18.851 85.614)" fill="url(#linear-gradient-6)"/>
      <path id="Path_19" data-name="Path 19" d="M442.176,284.835v60.111a29.922,29.922,0,0,1-14.3,25.9H313.626c-9.595,0-17.375-8.307-17.375-18.562V279.352c0-10.258,7.777-18.575,17.375-18.57h117a30.237,30.237,0,0,1,11.554,24.053Z" transform="translate(72.305 86.999)" opacity="0.61" fill="url(#linear-gradient-7)"/>
      <path id="Path_20" data-name="Path 20" d="M438.913,284.841v60.111a32.376,32.376,0,0,1-.169,3.317c-.048.481-.113.954-.185,1.426a29.905,29.905,0,0,1-1.528,6.015c-.169.49-.354.962-.563,1.435a29.843,29.843,0,0,1-3.377,6.015c-.354.481-.724.962-1.118,1.427a28.02,28.02,0,0,1-7.365,6.316H326.781a16.839,16.839,0,0,1-13.05-6.316q-.564-.684-1.061-1.426a18.737,18.737,0,0,1-2.661-6.015c-.121-.464-.217-.945-.3-1.435a18.885,18.885,0,0,1-.3-3.394V279.358a19.141,19.141,0,0,1,.386-3.867,12.18,12.18,0,0,1,.33-1.427,18.634,18.634,0,0,1,2.862-6.015,15.646,15.646,0,0,1,1.134-1.427,16.778,16.778,0,0,1,12.656-5.861H427.359a28.428,28.428,0,0,1,5.7,5.861c.338.464.667.937.981,1.426a29.457,29.457,0,0,1,2.975,6.015c.177.473.346.954.482,1.427a29.53,29.53,0,0,1,1.238,6.015c.056.473.1.954.121,1.435C438.9,283.544,438.913,284.205,438.913,284.841Z" transform="translate(75.568 86.993)" fill="url(#linear-gradient-8)"/>
      <path id="Path_21" data-name="Path 21" d="M433.127,266.57H312.078a15.636,15.636,0,0,1,1.134-1.427H432.138C432.484,265.608,432.813,266.08,433.127,266.57Zm3.457,7.416h-127.7a12.162,12.162,0,0,1,.33-1.427H436.1C436.279,273.032,436.448,273.513,436.584,273.986Zm1.359,7.425H308.492v-1.435H437.823c.056.473.1.954.121,1.435ZM308.5,287.4H438.008v1.427H308.5Zm0,7.416H438.008v1.427H308.5Zm0,7.425H438.008v1.427H308.5Zm0,7.425H438.008v1.418H308.5Zm0,7.416H438.008V318.5H308.5Zm0,7.425H438.008v1.418H308.5Zm0,7.416H438.008v1.418H308.5Zm0,7.425H438.008v1.427H308.5Zm129.33,7.416c-.048.481-.113.954-.185,1.427H308.5v-1.427Zm-1.672,7.416c-.169.49-.354.962-.563,1.435H309.119c-.121-.464-.217-.945-.3-1.435Zm-3.98,7.425c-.354.481-.724.962-1.118,1.426H312.818q-.564-.684-1.061-1.426Z" transform="translate(76.482 88.498)" fill="#fff"/>
      <path id="Path_22" data-name="Path 22" d="M335.035,268.4h82.414a23.7,23.7,0,0,1-11.257,2.819H99.756a23.528,23.528,0,0,1-14.2-4.692,22.154,22.154,0,0,1-3.272-2.965c-.322-.352-.635-.722-.933-1.091a22.632,22.632,0,0,1-2.846-4.6c-.169-.361-.33-.73-.474-1.091a21.31,21.31,0,0,1-1.286-4.6c-.056-.361-.113-.722-.153-1.1a22.025,22.025,0,0,1-.145-2.535V202.432c0-.5,0-.988.048-1.469s.056-.73.1-1.091a21.71,21.71,0,0,1,1.037-4.6c.129-.37.265-.73.41-1.1a21.969,21.969,0,0,1,2.509-4.589c.265-.37.539-.739.8-1.1a22.768,22.768,0,0,1,1.906-2.1,23.554,23.554,0,0,1,16.5-6.66H406.193a23.658,23.658,0,0,1,13.564,4.3H335.035a14.739,14.739,0,0,0-3.827.5,14.59,14.59,0,0,0-6.834,3.987,10.911,10.911,0,0,0-.957,1.1A13.9,13.9,0,0,0,321,194.2a10.444,10.444,0,0,0-.281,1.1,13.318,13.318,0,0,0-.322,2.965v55.918a14.015,14.015,0,0,0,.249,2.578,9.719,9.719,0,0,0,.257,1.091,13.781,13.781,0,0,0,2.235,4.6,12.565,12.565,0,0,0,.892,1.091,14.381,14.381,0,0,0,4.881,3.54A14.758,14.758,0,0,0,335.035,268.4Z" transform="translate(18.951 59.989)" fill="#68e1fd"/>
      <path id="Path_23" data-name="Path 23" d="M381.942,201.625v46.654a4.354,4.354,0,0,1-.048.791c-.048.258-.04.524-.064.782s-.064.481-.088.713-.056.37-.089.55a1.823,1.823,0,0,1-.048.275c-.04.249-.088.507-.145.756s-.072.327-.121.49-.072.318-.121.481-.088.344-.137.516l-.169.524a1.338,1.338,0,0,1-.129.421c-.048.137-.129.37-.2.55l-.217.559a1.961,1.961,0,0,1-.129.3,3.833,3.833,0,0,1-.177.421c-.048.12-.113.241-.169.361s-.169.37-.265.541-.273.559-.426.859l-.249.43c-.225.4-.458.773-.708,1.143-.129.2-.257.378-.386.559-.257.37-.531.722-.8,1.074s-.611.739-.941,1.091a22.971,22.971,0,0,1-2.1,2.019.165.165,0,0,1-.056.052c-.241.206-.482.4-.732.593l-.8.593-.8.55c-.257.172-.515.327-.8.49l-.925.524H287.483a14.885,14.885,0,0,1-6.119-1.3,14.464,14.464,0,0,1-4.881-3.523,12.541,12.541,0,0,1-.892-1.091,13.58,13.58,0,0,1-2.235-4.572,9.589,9.589,0,0,1-.257-1.083,13.9,13.9,0,0,1-.249-2.578v-55.7a13.223,13.223,0,0,1,.322-2.948,10.306,10.306,0,0,1,.281-1.091,13.781,13.781,0,0,1,2.412-4.563,10.921,10.921,0,0,1,.957-1.1,14.7,14.7,0,0,1,6.834-3.97,15.1,15.1,0,0,1,3.827-.49h84.722c.37.258.74.524,1.093.808l.41.327a19.938,19.938,0,0,1,1.608,1.427l.442.447.322.344.434.481.434.516.088.112.064.086c.257.327.515.67.756,1.014.129.172.249.352.37.524a.238.238,0,0,0,.048.069q.322.5.627,1.005l.346.6c.209.378.41.773.6,1.16.088.206.185.4.273.593s.177.412.249.61.153.361.217.55.137.361.193.541.121.361.177.541a18.112,18.112,0,0,1,.587,2.277,2.2,2.2,0,0,1,.056.3,3.19,3.19,0,0,0,.1.541c.032.18.088.61.129.911s.08.722.1,1.091v.584c0,.2.024.584.024.885Z" transform="translate(66.503 61.131)" fill="url(#linear-gradient-9)"/>
      <path id="Path_24" data-name="Path 24" d="M328.916,266.015q-2.726.7-5.628,1.306H104.805a93.928,93.928,0,0,1-19.249-1.873,22.152,22.152,0,0,1-3.272-2.965c-.322-.352-.635-.722-.933-1.091a22.634,22.634,0,0,1-2.846-4.6c-.169-.361-.33-.73-.474-1.091a21.309,21.309,0,0,1-1.286-4.6c-.056-.361-.113-.722-.153-1.1a22.027,22.027,0,0,1-.145-2.535V201.358c0-.5,0-.988.048-1.469s.056-.73.1-1.091a21.709,21.709,0,0,1,1.037-4.6c.129-.37.265-.73.41-1.1a21.969,21.969,0,0,1,2.509-4.589c.265-.37.539-.739.8-1.1a22.764,22.764,0,0,1,1.906-2.1,92.288,92.288,0,0,1,21.548-2.363h224.6l1.8.5a14.59,14.59,0,0,0-6.834,3.987,10.916,10.916,0,0,0-.957,1.1A13.9,13.9,0,0,0,321,193.125a10.442,10.442,0,0,0-.281,1.1,13.318,13.318,0,0,0-.322,2.965v55.918a14.015,14.015,0,0,0,.249,2.578,9.723,9.723,0,0,0,.257,1.091,13.779,13.779,0,0,0,2.235,4.6,12.533,12.533,0,0,0,.892,1.091,14.384,14.384,0,0,0,4.881,3.549Z" transform="translate(18.951 61.064)" fill="#68e1fd"/>
      <path id="Path_25" data-name="Path 25" d="M329.831,266.047q-2.726.7-5.628,1.306H105.72a93.922,93.922,0,0,1-19.249-1.873,22.148,22.148,0,0,1-3.272-2.965c-.322-.352-.635-.722-.933-1.091a22.635,22.635,0,0,1-2.846-4.6c-.169-.361-.33-.731-.474-1.091a21.309,21.309,0,0,1-1.286-4.6c-.056-.361-.113-.722-.153-1.1a22.023,22.023,0,0,1-.145-2.535V201.39c0-.5,0-.988.048-1.469s.056-.73.1-1.091a21.711,21.711,0,0,1,1.037-4.6c.129-.37.265-.73.41-1.1a21.969,21.969,0,0,1,2.509-4.589c.265-.369.539-.739.8-1.1a22.766,22.766,0,0,1,1.906-2.1,92.286,92.286,0,0,1,21.548-2.363h224.6l1.8.5a14.591,14.591,0,0,0-6.834,3.987,10.915,10.915,0,0,0-.957,1.1,13.9,13.9,0,0,0-2.412,4.589,10.475,10.475,0,0,0-.281,1.1,13.318,13.318,0,0,0-.322,2.965V253.14a14.016,14.016,0,0,0,.249,2.578,9.749,9.749,0,0,0,.257,1.091,13.78,13.78,0,0,0,2.235,4.6,12.54,12.54,0,0,0,.892,1.091,14.384,14.384,0,0,0,4.881,3.549Z" transform="translate(18.036 61.032)" fill="url(#linear-gradient-10)"/>
      <path id="Path_26" data-name="Path 26" d="M356,248.8a20.539,20.539,0,0,1-2.1,2.234A23.211,23.211,0,0,0,356,248.8Z" transform="translate(86.598 83.001)" fill="url(#linear-gradient-11)"/>
      <path id="Path_27" data-name="Path 27" d="M357.5,188.743c-.121-.2-.241-.4-.37-.584-.241-.378-.5-.756-.756-1.117.4.55.78,1.117,1.126,1.7Z" transform="translate(87.21 62.387)" fill="url(#linear-gradient-11)"/>
      <path id="Path_28" data-name="Path 28" d="M359.353,192.713c.064.2.121.4.177.593-.1-.4-.233-.8-.37-1.195.072.2.137.4.193.6Z" transform="translate(87.902 64.08)" fill="url(#linear-gradient-13)"/>
      <path id="Path_29" data-name="Path 29" d="M383.771,201.593v47.17a6.764,6.764,0,0,1-.08,1,21.132,21.132,0,0,1-.852,4.159c-.1.335-.2.662-.322.98a22.855,22.855,0,0,1-10.75,12.323H275.475A14.425,14.425,0,0,1,261,254.916a6.744,6.744,0,0,1-.1-1,7.68,7.68,0,0,1-.04-.859V197.408A14.4,14.4,0,0,1,275.5,183.246h98.536A22.292,22.292,0,0,1,383.771,201.593Z" transform="translate(64.674 61.164)" fill="#68e1fd"/>
      <path id="Path_30" data-name="Path 30" d="M376.918,187.394H274.95a10.927,10.927,0,0,1,.957-1.1H376.074A11.038,11.038,0,0,1,376.918,187.394Zm2.919,5.689H272.256a9.973,9.973,0,0,1,.281-1.1h106.9C379.58,192.344,379.716,192.713,379.837,193.083Zm1.15,5.689H271.934v-1.1H380.9C380.9,198.032,380.963,198.4,380.987,198.771ZM271.934,203.36h109.1v1.1h-109.1Zm0,5.689h109.1v1.1h-109.1Zm0,5.689h109.1v1.1h-109.1Zm0,5.7h109.1v1.091h-109.1Zm0,5.689h109.1v1.091h-109.1Zm0,5.689h109.1V232.9h-109.1Zm0,5.689h109.1v1.091h-109.1Zm0,5.689h109.1v1.1h-109.1Zm109.109,5.672a10.911,10.911,0,0,0,0,1.1H271.934v-1.1Zm-1.6,5.706c0,.37-.442.73-.474,1.1H272.441a9.476,9.476,0,0,1-.257-1.1Z" transform="translate(67.418 62.181)" fill="#fff"/>
      <path id="Path_31" data-name="Path 31" d="M327.334,187.394H80.549c.265-.37.539-.739.8-1.1H325.372C326.047,186.655,326.7,186.99,327.334,187.394Zm-2.219,5.689H77.63c.129-.37.265-.73.41-1.1h246.1a13.243,13.243,0,0,1,.973,1.1Zm2.734,5.689H76.5a9.812,9.812,0,0,1,.1-1.091H327.607A10.125,10.125,0,0,1,327.848,198.771ZM76.44,203.36H327.961v1.091H76.44Zm0,5.689H327.961v1.091H76.44Zm0,5.689H327.961v1.1H76.44Zm0,5.7H327.961v1.091H76.44Zm0,5.7H327.961v1.083H76.44Zm0,5.68H327.961V232.9H76.44Zm0,5.689H327.961v1.091H76.44Zm0,5.689H327.961v1.1H76.44Zm251.183,5.672a11.03,11.03,0,0,1-.378,1.1H76.746c-.056-.361-.113-.722-.153-1.1Zm-3.449,5.715a14.668,14.668,0,0,1-1.134,1.091H78.506c-.169-.361-.33-.73-.474-1.091Z" transform="translate(18.949 62.181)" fill="#fff"/>
      <path id="Path_32" data-name="Path 32" d="M308.779,172c-3.626,4.658-8.314,9.341-10.171,10.381-10.565,5.947-22.8,10.544-29,21.415-7.847,13.75-2.774,31.736-6.376,47.393-.659,2.853-1.68,5.766-3.747,7.734s-5.387,2.638-7.582.859c-1.93-1.555-2.412-4.374-2.774-6.926a289.5,289.5,0,0,1-.354-72.658c-12.061,5.758-20.222,17.909-26.662,30.2s-11.844,25.462-20.817,35.783c-2.549,2.922-5.9,5.783-9.6,5.216-4.446-6.015-2.115-14.807.41-22.008,5.057-14.463,10.131-28.96,16.644-42.753,2.107-4.469,4.446-8.954,7.984-12.237a20.673,20.673,0,0,1,3.12-2.38Z" transform="translate(46.903 57.409)" fill="#3f3d56" opacity="0.2"/>
      <path id="Path_33" data-name="Path 33" d="M423.615,241.755c-.273.387-.579.688-.884,1.091H81.309c-.322-.352-.635-.722-.933-1.091Z" transform="translate(19.925 80.692)" fill="#fff"/>
      <path id="Path_34" data-name="Path 34" d="M153.434,375.916H112.179c-13.227-3.558-19.635-18.845-19.635-18.845s-1.2-74.763,0-84.216,21.235-16.242,21.235-16.242h39.655c-13.227,2.028-22.835,15.812-22.835,15.812s-.8,82.626,0,88.186S153.434,375.916,153.434,375.916Z" transform="translate(21.668 85.608)" fill="url(#linear-gradient-14)"/>
      <path id="Path_35" data-name="Path 35" d="M147.863,375.916H134.637c-13.21-3.558-19.619-18.845-19.619-18.845s-1.206-74.763,0-84.216,21.227-16.242,21.227-16.242h11.618c-13.227,2.028-22.835,15.812-22.835,15.812s-.8,82.626,0,88.186S147.863,375.916,147.863,375.916Z" transform="translate(27.239 85.608)" fill="url(#linear-gradient-15)"/>
      <path id="Path_36" data-name="Path 36" d="M187.122,212.491l-3.843,7.133,8.925,4.151,3.691-6.789-8.772-4.494Z" transform="translate(45.438 70.925)" fill="url(#linear-gradient-16)"/>
      <path id="Path_37" data-name="Path 37" d="M234.526,226.853l-.418,7.949,9.729-.6.41-7.347Z" transform="translate(58.04 75.718)" fill="url(#linear-gradient-17)"/>
      <path id="Path_38" data-name="Path 38" d="M189.442,241.65a3.736,3.736,0,0,0-.8-1.143,2.92,2.92,0,0,0-1.319-.516l-15.446-3.317a6.037,6.037,0,0,0-1.7-.2c-1.479.1-2.694,1.263-3.666,2.458a3.64,3.64,0,0,0-1.013,2.131,3.786,3.786,0,0,0,1.415,2.578,40.339,40.339,0,0,0,3.417,3.025,70.4,70.4,0,0,0,7.132,4.7c1.656,1,3.313,1.994,5.009,2.9,2.79,1.5,5.685,2.75,8.6,3.97a.806.806,0,0,0,.65.114.858.858,0,0,0,.532-.415,25.413,25.413,0,0,0,4.889-8.129c.281-.748.8-2.389,0-3.008-.281-.215-1.077-.18-1.431-.266a9.738,9.738,0,0,1-1.544-.541,10.318,10.318,0,0,1-4.712-4.348Zm62.667,17.943a3.484,3.484,0,0,0-1.23-.559,2.9,2.9,0,0,0-1.383.258l-14.907,5.44a6.309,6.309,0,0,0-1.568.739c-1.23.859-1.737,2.578-2.018,4.1a3.75,3.75,0,0,0,.137,2.38,3.4,3.4,0,0,0,2.412,1.452,35.91,35.91,0,0,0,4.374.773,64.752,64.752,0,0,0,8.37.232c1.906,0,3.8-.052,5.7-.18,3.12-.206,6.215-.679,9.295-1.186a.876.876,0,0,0,.884-.859,27.1,27.1,0,0,0,.41-9.659c-.113-.8-.458-2.484-1.431-2.578-.346-.043-1.013.421-1.359.533a8.549,8.549,0,0,1-1.608.361,9.452,9.452,0,0,1-6.079-1.246ZM312.46,152.4s-2.525,25.256-24.306,29.708c-14.746,3.016-32.781,1.942-42.88.937a12.749,12.749,0,0,0-12.189,6.419l-31.358,53.383-9.086-4.692h-.072l-3.216-1.65,26.115-65.121A28.38,28.38,0,0,1,232.852,154.3l30-9.925,7.011-2.32s28.077-3.025,42.6,10.346Z" transform="translate(41.027 47.317)" fill="#3f3d56"/>
      <path id="Path_39" data-name="Path 39" d="M258.132,143.692l1.97,4.46s-34.574,10.828-38.819,16.1c-5.668,7.047-33.376,73.259-33.376,73.259h-.072l-3.216-1.65,26.115-65.121a28.38,28.38,0,0,1,17.383-17.084Z" transform="translate(45.77 47.962)" fill="#fff" opacity="0.24"/>
      <path id="Path_40" data-name="Path 40" d="M259.089,146.45s-27.772,28.917-28.672,44.385,2.983,63.97,2.983,63.97h13.476s-.667-58.882,4.824-59.295S282.085,178,286.081,173.09s10.372-22.274,10.372-22.274Z" transform="translate(57.091 48.882)" fill="#3f3d56"/>
      <path id="Path_41" data-name="Path 41" d="M293.429,172.188s-22.264,12.143-45.38-2.062a51.781,51.781,0,0,1-5.8-4.133s9.745-18.6,1.986-45.631c-3.321-11.558-3.393-33.626,13.05-36.771h.08c16.354-3.1,15.43,1.212,15.43,1.212l7.4,7.683C294.418,104.849,295.978,123.729,293.429,172.188Z" transform="translate(60.059 27.527)" fill="#68e1fd"/>
      <path id="Path_42" data-name="Path 42" d="M257.367,83.3a9.952,9.952,0,0,1-3.079,3.979s-9.777,4.632-7.823,19.954S252,152.017,252,152.017l-3.948,17.831a51.779,51.779,0,0,1-5.8-4.133s9.745-18.6,1.986-45.631c-3.321-11.558-3.393-33.626,13.05-36.771Z" transform="translate(60.059 27.804)" fill="#fff" opacity="0.24"/>
      <path id="Path_43" data-name="Path 43" d="M270.14,82.561a10.029,10.029,0,0,1-7.179,3.891,9.845,9.845,0,0,1-7.591-2.86s-12.061,12.89.129,14.446c6.432.859,14.352-7.459,16.644-12.16Z" transform="translate(61.992 27.559)" fill="#3f3d56"/>
      <path id="Path_44" data-name="Path 44" d="M274.294,73.541c-.048.172-2.316,7.588-4.02,12.89a16.973,16.973,0,0,1-7.51,9.7,17.186,17.186,0,0,1-6.834,2.578,3.091,3.091,0,0,1-2.951-1.555,3.567,3.567,0,0,1-.048-3.516c.563-1.057,1.174-2.277,1.737-3.575,1.174-2.7,2.155-5.7,1.994-8.069v-.258c-.145-1.237.611-2.329,1.881-3.283a24.511,24.511,0,0,1,7.373-3.171,72.146,72.146,0,0,1,8.378-1.744Z" transform="translate(61.456 24.505)" fill="url(#linear-gradient-18)"/>
      <path id="Path_45" data-name="Path 45" d="M255.974,89.655a6.224,6.224,0,0,1-1.68.129c1.174-2.7,2.155-5.7,1.994-8.069l1.865-3.541,1.391-2.63L265.526,75l6.046-.541c-3.988,10.08-10.686,14.257-15.6,15.193Z" transform="translate(61.903 24.813)" fill="url(#linear-gradient-19)"/>
      <path id="Path_46" data-name="Path 46" d="M268.688,48.209a15.384,15.384,0,0,0-12.716,2.835,17.558,17.558,0,0,0-6.686,11.9,62.639,62.639,0,0,0-.153,21.037c2.758,10.785,17.576,6.875,20.583,3.6S284.809,69.22,282.831,63.35C281.569,59.363,277.146,50.254,268.688,48.209Z" transform="translate(60.421 15.927)" fill="url(#linear-gradient-20)"/>
      <path id="Path_47" data-name="Path 47" d="M256.794,40.408l2.284,2.2a9.8,9.8,0,0,0-9.246,1.865,14.342,14.342,0,0,0-6.3,8.654l5.074-.971s-1.849,5.835,6.561,8.748S272.5,66.8,272.5,66.8l-1.8-5.156s4.72,3.8,5.114,6.17a76.268,76.268,0,0,1-.8,10.742s3.6-5.242,4.149-3.712-2.589,6.316-4.02,7.167-2.107,4.383-2.283,4.64,6.432-2.956,7.084-4.537,10.227-16.628,7.614-21.131l2.163.438a10.637,10.637,0,0,0-3.747-2.939s-8.981-23.606-29.171-18.072Z" transform="translate(60.375 13.209)" fill="#3f3d56"/>
      <path id="Path_48" data-name="Path 48" d="M256.42,136.157c-1.214-1.3-2.412-2.844-4.109-3.154-.595,1.512.619,3.068,1.134,4.606a1.341,1.341,0,0,1,0,1.1c-.241.412-.8.438-1.246.4a18.593,18.593,0,0,1-6.231-1.6c-1.833-.859-3.594-1.968-5.58-2.183a.932.932,0,0,0-.627.086c-.482.327-.2,1.117.145,1.6a18.173,18.173,0,0,0,2.5,2.844,13.2,13.2,0,0,0-4.422-1.212c-.426,0-1.005.094-1,.55a.88.88,0,0,0,.241.49,13.845,13.845,0,0,0,4.02,3.369,12.753,12.753,0,0,0-3.377-.3c-.49,0-1.142.275-1.069.791a.975.975,0,0,0,.225.447,10.182,10.182,0,0,0,5.258,3.6l-3.216.077a1.14,1.14,0,0,0-.587.129c-.579.4-.072,1.366.49,1.787,2.476,1.848,5.628,2.174,8.66,2.406,5.8.447,11.9.687,17.126-2.045.378-.206.8-.481.876-.928a1.681,1.681,0,0,0-.1-.687c-.635-2.26-.957-6.359-2.878-7.734-.933-.662-2.082-1.04-3.039-1.719S257.514,136.742,256.42,136.157Z" transform="translate(57.564 44.352)" fill="url(#linear-gradient-21)"/>
      <path id="Path_49" data-name="Path 49" d="M294.621,143.057C292.8,162.143,260.4,164.48,260.4,164.48l-3.337-12.263-.587-2.157s17.335-2.337,20.648-8.138-10.324-25.248-2.082-36.093,10.115-7.511,10.115-7.511,11.265,25.652,9.464,44.738Z" transform="translate(63.586 32.657)" fill="#68e1fd"/>
      <path id="Path_50" data-name="Path 50" d="M219.593,110.382a15.677,15.677,0,0,1-.137,1.787c-.273,2.673-1.053,7.562-3.128,9.341-2.919,2.5-3.321-1.143-3.256-2.578a16.377,16.377,0,0,1,.362-2.337c.675-3.111,4.253-5.242,5.628-5.947Z" transform="translate(51.681 36.801)" fill="url(#linear-gradient-22)"/>
      <path id="Path_51" data-name="Path 51" d="M221.995,117.632c-.273,2.673-1.053,7.562-3.128,9.341-.9-.7-2.058-1.624-3.256-2.578-1.608-1.289-3.321-2.647-4.535-3.592a15.685,15.685,0,0,1-2.927-2.733,16.332,16.332,0,0,1-1.865-3.437l-2.492-5.792c-.8-1.9-1.608-4.408-.177-5.878.362-.378,3.658-1.066,3.875-1.564.6-1.427-3.216-4.443-2.975-6.015a1.8,1.8,0,0,1,1.906-1.358c.8.043,3.088,2.286,3.8,2.741,1.415.859.225,2.08,1.608,2.973a18.459,18.459,0,0,1,4.824,3.833,20.449,20.449,0,0,1,3.1,6.875c.547,1.779,1.278,3.7,1.841,5.62.153.55.289,1.057.4,1.564Z" transform="translate(49.143 31.339)" fill="url(#linear-gradient-23)"/>
      <path id="Path_52" data-name="Path 52" d="M209.254,110.735l-5.363-27.181-1.986-10.046,31.165,8.929,9.045,65.027-28.962-9.436Z" transform="translate(50.056 24.537)" fill="#68e1fd"/>
      <path id="Path_53" data-name="Path 53" d="M215.444,108.5,203.11,79.217l9.745,56.906,28.962,9.436-3.1-22.3Z" transform="translate(50.354 26.443)" fill="url(#linear-gradient-24)"/>
      <path id="Path_54" data-name="Path 54" d="M211.938,114.109c.981-.524,2.991-1.478,3.5-2.518.121-.249.3-.576.145-.8-.7-1.031-3.578.284-4.4,0,.563-.988,5.58-3.987,3.216-4.666-.507-.146-3.65,1.555-4.157,1.4.394-.344,3.626-2.8,4.181-3.437a1.186,1.186,0,0,0,.08-1.4,1.015,1.015,0,0,0-1.262-.394,47.369,47.369,0,0,1-5.258,2.2c.346-.61,5.017-3.437,5.2-4.159a1.418,1.418,0,0,0,.048-.816,1.162,1.162,0,0,0-.683-.645c-1.3-.541-2.766,0-4.068.559l-3.088,1.306a3.73,3.73,0,0,0-2.412,2.011,3.84,3.84,0,0,0-.072,1.659,22.582,22.582,0,0,0,3.385,9.659c.917,1.427,3.811,4.872,5.476,5.208,1.479.3-1.206-4.391.169-5.165Z" transform="translate(49.148 32.885)" fill="url(#linear-gradient-25)"/>
      <path id="Path_55" data-name="Path 55" d="M236.268,200.426s10.629-26.03,22.915-33.437l-4.189-1.813s-21.572,24.517-24.121,37.132,2.565,66.745,2.565,66.745h3.538S231.13,205.737,236.268,200.426Zm48.323-56.382c-6.842,3.008-18.493,5.629-21,6.179l-.482.1-.1-2.26s17.335-2.337,20.648-8.138-10.324-25.248-2.082-36.093c0,0-1.045,9.59,1.664,16.68S292.278,140.659,284.591,144.045Z" transform="translate(57.061 34.659)" fill="#fff" opacity="0.24"/>
    </g>
  </g>
</svg>
