<svg xmlns="http://www.w3.org/2000/svg" xmlns:xlink="http://www.w3.org/1999/xlink" width="668" height="646" viewBox="0 0 668 646">
  <defs>
    <clipPath id="clip-path">
      <rect id="Rectangle_8" data-name="Rectangle 8" width="668" height="646" transform="translate(1178.059 2253)" fill="#fff" stroke="#707070" stroke-width="1"/>
    </clipPath>
    <clipPath id="clip-path-2">
      <path id="SVGID" d="M407.671,406.715l-3.359,13.239a3.093,3.093,0,0,1-2.861,2.38c-3.391.119-9.722,1.586-12.575,10.122l-2.632,5.767a.793.793,0,0,0,.7,1.134l38.959,1.38,14.733-35.863a2.951,2.951,0,0,0-.435-2.991,55.389,55.389,0,0,0-12.306-10.875s-1.9.286-6.837-1.079l-2.751-.571-.6,5.14S413.725,404.383,407.671,406.715Z" transform="translate(-386.166 -389.359)" fill="#0071f2"/>
    </clipPath>
  </defs>
  <g id="Mask_Group_3" data-name="Mask Group 3" transform="translate(-1178.059 -2253)" clip-path="url(#clip-path)">
    <g id="Plant-cropping-V2" transform="translate(1178.005 2315.39)">
      <g id="freepik--background-simple--inject-1" transform="translate(0 0)">
        <path id="Path_56" data-name="Path 56" d="M670.889,405.1C685.345,296.08,615.205,151.2,542.6,91.358c-131.167-108-240.139-87.115-324.91-48.444S120.9,210.79,62.368,269.229s-91.813,137.05-3.011,215.289,160.5,38.481,253.26,33.515,215.937,34.11,282.528.135C641.652,494.456,664.55,453.342,670.889,405.1Z" transform="translate(-4.796 -11.636)" fill="#0071f2"/>
        <path id="Path_57" data-name="Path 57" d="M670.889,405.1C685.345,296.08,615.205,151.2,542.6,91.358c-131.167-108-240.139-87.115-324.91-48.444S120.9,210.79,62.368,269.229s-91.813,137.05-3.011,215.289,160.5,38.481,253.26,33.515,215.937,34.11,282.528.135C641.652,494.456,664.55,453.342,670.889,405.1Z" transform="translate(-4.796 -11.636)" fill="#fff" opacity="0.8"/>
      </g>
      <g id="freepik--Floor--inject-1" transform="translate(8.259 411.848)">
        <path id="Path_58" data-name="Path 58" d="M12.165,377.8c8.268,20.1,23.127,40.567,46.3,60.969,88.793,78.238,160.5,38.481,253.26,33.515s215.937,34.11,282.529.135c40.445-20.625,63.05-54.473,72.448-94.651Z" transform="translate(-12.165 -377.772)" fill="#0071f2"/>
        <path id="Path_59" data-name="Path 59" d="M12.165,377.8c8.268,20.1,23.127,40.567,46.3,60.969,88.793,78.238,160.5,38.481,253.26,33.515s215.937,34.11,282.529.135c40.445-20.625,63.05-54.473,72.448-94.651Z" transform="translate(-12.165 -377.772)" fill="#fff" opacity="0.5"/>
      </g>
      <g id="freepik--background-complete--inject-22" transform="translate(33.583 18.411)">
        <path id="Path_60" data-name="Path 60" d="M34.76,288.483S150.008,223.2,234.114,223.2c82.391,0,194.13,32.983,224.474,40.369,79.775,19.4,182.456,24.916,182.456,24.916Z" transform="translate(-34.76 -3.634)" fill="#dbdbdb"/>
        <path id="Path_61" data-name="Path 61" d="M627.474,286.095s-62.813-43.772-133.815-43.772c-49.534,0-120.623,17.626-187.578,27.542-25.5,3.768-158.214,16.23-158.214,16.23Z" transform="translate(-21.096 -1.246)" fill="#c7c7c7"/>
        <path id="Path_62" data-name="Path 62" d="M537.181,225.695s-18.487,41.328,11.769,41.328,10.655-42.74,10.655-42.74,7-3.1-1.122-26.177S546.76,174.99,543.354,174.99c-4.276,0-8.2,9.971-5.327,25.3C538.066,200.311,527.38,219.428,537.181,225.695Z" transform="translate(25.26 -9.653)" fill="#dbdbdb"/>
        <path id="Path_63" data-name="Path 63" d="M550.1,288.019l-2.917-62.254-2.909,62.254Z" transform="translate(26.793 -3.313)" fill="#a6a6a6"/>
        <path id="Path_64" data-name="Path 64" d="M549.116,250.388l-10.987-12.874,8.615,14.588Z" transform="translate(26.05 -1.847)" fill="#a6a6a6"/>
        <path id="Path_65" data-name="Path 65" d="M64.719,224.5s18.851,42.161-12.006,42.161-10.923-43.629-10.923-43.629-7.114-3.173,1.146-26.661,11.99-23.536,15.429-23.536c4.355,0,8.418,10.185,5.462,25.82C63.826,198.676,74.7,218.19,64.719,224.5Z" transform="translate(-34.676 -9.922)" fill="#c7c7c7"/>
        <path id="Path_66" data-name="Path 66" d="M48.384,288.16l2.972-63.524,2.98,63.524Z" transform="translate(-33.114 -3.454)" fill="#a6a6a6"/>
        <path id="Path_67" data-name="Path 67" d="M49.964,249.778l11.208-13.16-8.789,14.9Z" transform="translate(-32.923 -1.958)" fill="#a6a6a6"/>
        <path id="Path_68" data-name="Path 68" d="M188.711,224.494s-18.922,42.161,12,42.161,10.86-43.629,10.86-43.629,7.153-3.173-1.138-26.661-12.014-23.512-15.436-23.512c-4.347,0-8.4,10.185-5.462,25.82C189.572,198.674,178.7,218.188,188.711,224.494Z" transform="translate(-16.854 -9.919)" fill="#c7c7c7"/>
        <path id="Path_69" data-name="Path 69" d="M201.894,288.16l-2.98-63.524-2.98,63.524Z" transform="translate(-15.289 -3.454)" fill="#a6a6a6"/>
        <path id="Path_70" data-name="Path 70" d="M200.873,249.778l-11.208-13.16,8.789,14.9Z" transform="translate(-16.046 -1.958)" fill="#a6a6a6"/>
        <path id="Path_71" data-name="Path 71" d="M525.48,220.385s9.485-3.768,17,9.36c7.714,13.485-1.952,22.346-9.627,17.071,0,0-6.023,12.692-18.068,9.662s-13.99-12.692-13.99-12.692-10.678.754-10.923-7.25,7.525-15.072,7.525-15.072.451-19.919,13.389-19.768S525.48,220.385,525.48,220.385Z" transform="translate(20.22 -6.318)" fill="#ebebeb"/>
        <path id="Path_72" data-name="Path 72" d="M514.37,287.692l-2.719-59.3-2.7,59.3Z" transform="translate(22.525 -2.986)" fill="#a6a6a6"/>
        <path id="Path_73" data-name="Path 73" d="M512.645,249.331,520.6,233.4l-10.267,14.532Z" transform="translate(22.693 -2.36)" fill="#a6a6a6"/>
        <path id="Path_74" data-name="Path 74" d="M367.783,223.823s8.947-3.57,16.045,8.837c7.28,12.692-1.857,21.093-9.09,16.1,0,0-5.683,11.962-17.041,9.114s-13.208-11.97-13.208-11.97-10.078.714-10.362-6.846,7.114-14.279,7.114-14.279.427-18.816,12.646-18.665S367.783,223.823,367.783,223.823Z" transform="translate(1.405 -5.766)" fill="#ebebeb"/>
        <path id="Path_75" data-name="Path 75" d="M357.286,287.321l-2.553-55.964-2.553,55.964Z" transform="translate(3.586 -2.615)" fill="#a6a6a6"/>
        <path id="Path_76" data-name="Path 76" d="M355.667,251.128l7.509-15.032-9.69,13.707Z" transform="translate(3.744 -2.024)" fill="#a6a6a6"/>
        <path id="Path_77" data-name="Path 77" d="M105.258,206.691s11.619-4.617,20.835,11.478c9.445,16.516-2.371,27.415-11.8,20.918,0,0-7.382,15.54-22.131,11.835s-17.152-15.54-17.152-15.54-13.089.92-13.437-8.892,9.216-18.5,9.216-18.5.561-24.432,16.385-24.258S105.258,206.691,105.258,206.691Z" transform="translate(-31.522 -8.561)" fill="#ebebeb"/>
        <path id="Path_78" data-name="Path 78" d="M91.625,289.178l-3.312-72.694-3.335,72.694Z" transform="translate(-28.693 -4.472)" fill="#a6a6a6"/>
        <path id="Path_79" data-name="Path 79" d="M89.523,242.162l9.738-19.514-12.591,17.8Z" transform="translate(-28.489 -3.703)" fill="#a6a6a6"/>
        <path id="Path_80" data-name="Path 80" d="M492.627,70.006H338.112s15.334-42,38.911-42,30.968,29,30.968,29,15.871-15.778,28.937-15.778,24.439,20.815,24.439,20.815S479.83,50.9,492.627,70.006Z" transform="translate(1.887 -28.004)" fill="#ebebeb"/>
        <path id="Path_81" data-name="Path 81" d="M252.744,77.581H180.533s16.124-23.456,28.85-23.456S225.855,69.76,225.855,69.76s8.971-7.306,17.286-6S252.744,77.581,252.744,77.581Z" transform="translate(-17.149 -24.743)" fill="#ebebeb"/>
        <path id="Path_82" data-name="Path 82" d="M559.848,159.423H487.629s16.14-23.417,28.85-23.417,16.472,15.651,16.472,15.651,8.963-7.306,17.286-6S559.848,159.423,559.848,159.423Z" transform="translate(19.949 -14.52)" fill="#ebebeb"/>
        <path id="Path_83" data-name="Path 83" d="M199.034,132.354H58.4S77.66,89.2,98.266,86.5s30.462,32.071,30.462,32.071,13.287-12.335,23.712-12.335,18.519,16.2,18.519,16.2S191.865,111.38,199.034,132.354Z" transform="translate(-31.904 -20.72)" fill="#ebebeb"/>
      </g>
      <path id="Path_84" data-name="Path 84" d="M638.113,271.828,37.2,270.258,37.1,251.632,638.018,253.2Z" transform="translate(-0.894 18.327)" fill="#e6e7e8"/>
      <path id="Path_85" data-name="Path 85" d="M638.113,332.757,37.2,331.179l-.095-18.61,600.917,1.563Z" transform="translate(-0.894 25.935)" fill="#e6e7e8"/>
      <path id="Path_86" data-name="Path 86" d="M47.954,224.589l11.88-9.931L71.7,224.589,69.477,396.638H50.191Z" transform="translate(0.417 13.711)" fill="#ebebeb"/>
      <path id="Path_87" data-name="Path 87" d="M61.385,255.567a2.567,2.567,0,1,1-2.577-2.538h0a2.573,2.573,0,0,1,2.577,2.538Z" transform="translate(1.419 18.502)" opacity="0.2"/>
      <path id="Path_88" data-name="Path 88" d="M61.385,320.991a2.567,2.567,0,1,1-2.577-2.562h0a2.573,2.573,0,0,1,2.577,2.562Z" transform="translate(1.419 26.667)" opacity="0.2"/>
      <path id="Path_89" data-name="Path 89" d="M102.777,224.589l11.864-9.931,11.88,9.931-2.237,172.048H105.006Z" transform="translate(7.04 13.711)" fill="#ebebeb"/>
      <path id="Path_90" data-name="Path 90" d="M116.2,320.991a2.553,2.553,0,1,1-2.553-2.562h0a2.55,2.55,0,0,1,2.553,2.562Z" transform="translate(8.045 26.667)" opacity="0.2"/>
      <path id="Path_91" data-name="Path 91" d="M116.2,255.569a2.553,2.553,0,1,1-2.553-2.562h0A2.558,2.558,0,0,1,116.2,255.569Z" transform="translate(8.045 18.499)" opacity="0.2"/>
      <path id="Path_92" data-name="Path 92" d="M157.586,224.589l11.864-9.931,11.88,9.931-2.237,172.048H159.814Z" transform="translate(13.661 13.711)" fill="#ebebeb"/>
      <path id="Path_93" data-name="Path 93" d="M171.016,320.991a2.567,2.567,0,1,1-2.577-2.562h0a2.573,2.573,0,0,1,2.577,2.562Z" transform="translate(14.663 26.667)" opacity="0.2"/>
      <path id="Path_94" data-name="Path 94" d="M171.016,255.569a2.567,2.567,0,1,1-2.577-2.562h0a2.573,2.573,0,0,1,2.577,2.562Z" transform="translate(14.663 18.499)" opacity="0.2"/>
      <path id="Path_95" data-name="Path 95" d="M212.394,224.589l11.88-9.931,11.872,9.931-2.229,172.048H214.639Z" transform="translate(20.283 13.711)" fill="#ebebeb"/>
      <path id="Path_96" data-name="Path 96" d="M225.825,320.991a2.567,2.567,0,1,1-2.577-2.562h0A2.573,2.573,0,0,1,225.825,320.991Z" transform="translate(21.284 26.667)" opacity="0.2"/>
      <path id="Path_97" data-name="Path 97" d="M225.825,255.569a2.567,2.567,0,1,1-2.577-2.562h0a2.573,2.573,0,0,1,2.577,2.562Z" transform="translate(21.284 18.499)" opacity="0.2"/>
      <path id="Path_98" data-name="Path 98" d="M267.217,224.589l11.872-9.931,11.872,9.931-2.237,172.048H269.446Z" transform="translate(26.905 13.711)" fill="#ebebeb"/>
      <path id="Path_99" data-name="Path 99" d="M280.648,320.991a2.567,2.567,0,1,1-2.577-2.562h0A2.573,2.573,0,0,1,280.648,320.991Z" transform="translate(27.907 26.667)" opacity="0.2"/>
      <path id="Path_100" data-name="Path 100" d="M280.648,255.569a2.567,2.567,0,1,1-2.577-2.562h0a2.573,2.573,0,0,1,2.577,2.562Z" transform="translate(27.907 18.499)" opacity="0.2"/>
      <path id="Path_101" data-name="Path 101" d="M322.026,224.589l11.88-9.931,11.872,9.931-2.229,172.048H324.27Z" transform="translate(33.527 13.711)" fill="#ebebeb"/>
      <path id="Path_102" data-name="Path 102" d="M335.457,320.991a2.567,2.567,0,1,1-2.577-2.562h0A2.573,2.573,0,0,1,335.457,320.991Z" transform="translate(34.528 26.667)" opacity="0.2"/>
      <path id="Path_103" data-name="Path 103" d="M335.457,255.569a2.567,2.567,0,1,1-2.577-2.562h0a2.573,2.573,0,0,1,2.577,2.562Z" transform="translate(34.528 18.499)" opacity="0.2"/>
      <path id="Path_104" data-name="Path 104" d="M376.849,224.589l11.872-9.931,11.872,9.931-2.237,172.048H379.077Z" transform="translate(40.149 13.711)" fill="#ebebeb"/>
      <path id="Path_105" data-name="Path 105" d="M390.279,255.569a2.567,2.567,0,1,1-2.577-2.562h0a2.573,2.573,0,0,1,2.577,2.562Z" transform="translate(41.151 18.499)" opacity="0.2"/>
      <path id="Path_106" data-name="Path 106" d="M431.664,224.589l11.872-9.931,11.872,9.931-2.229,172.048H433.9Z" transform="translate(46.771 13.711)" fill="#ebebeb"/>
      <path id="Path_107" data-name="Path 107" d="M445.1,255.569a2.569,2.569,0,1,1-2.585-2.562h0A2.581,2.581,0,0,1,445.1,255.569Z" transform="translate(47.773 18.499)" opacity="0.2"/>
      <path id="Path_108" data-name="Path 108" d="M486.48,224.589l11.872-9.931,11.88,9.931-2.245,172.048H488.709Z" transform="translate(53.394 13.711)" fill="#ebebeb"/>
      <path id="Path_109" data-name="Path 109" d="M499.9,255.569a2.553,2.553,0,1,1-2.553-2.562h0A2.558,2.558,0,0,1,499.9,255.569Z" transform="translate(54.398 18.499)" opacity="0.2"/>
      <path id="Path_110" data-name="Path 110" d="M541.3,224.589l11.864-9.931,11.88,9.931L562.81,396.638H543.517Z" transform="translate(60.016 13.711)" fill="#ebebeb"/>
      <path id="Path_111" data-name="Path 111" d="M554.727,255.569a2.569,2.569,0,1,1-2.585-2.562h0a2.573,2.573,0,0,1,2.585,2.562Z" transform="translate(61.017 18.499)" opacity="0.2"/>
      <path id="Path_112" data-name="Path 112" d="M394.059,320.991a2.569,2.569,0,1,1-2.585-2.562h0a2.573,2.573,0,0,1,2.585,2.562Z" transform="translate(41.608 26.667)" opacity="0.2"/>
      <path id="Path_113" data-name="Path 113" d="M267.153,333.555l47.155,1.824,30.7-17.975L332.29,299.953,316.482,306s-43.472,6.235-54.095,7.7C262.4,313.747,255.463,323.282,267.153,333.555Z" transform="translate(26.077 24.36)" fill="#f9b499"/>
      <path id="Path_114" data-name="Path 114" d="M266.976,310.907c-2.371-1.325-5.675-1.951-8.694,1.666a11.134,11.134,0,0,1-6.592,3.72l-19.76,3.554s-4.742-1.468-7.675,6.6c0,0-11.856,7.5.364,14.279,0,0,1.1,11.367,13.887,10.638,0,0,13.16-1.1,13.524-10.638,0,0,12.062,1.832,14.227-6.608h5.817a1.8,1.8,0,0,0,1.423-2.9c-2.6-3.308-5.96-9.043-4.26-15.072a4.655,4.655,0,0,0-2.261-5.236Z" transform="translate(21.092 25.598)" fill="#0071f2"/>
      <path id="Path_115" data-name="Path 115" d="M391.866,409.055v25.463s-83.988,3.11-76.945-5.941c0,0,15.12-19.7,29.15-6.671a1.483,1.483,0,0,0,2.276-.286l3.241-5.2h21.491Z" transform="translate(32.617 37.981)" fill="#0071f2"/>
      <path id="SVGID-2" data-name="SVGID" d="M407.671,406.715l-3.359,13.239a3.093,3.093,0,0,1-2.861,2.38c-3.391.119-9.722,1.586-12.575,10.122l-2.632,5.767a.793.793,0,0,0,.7,1.134l38.959,1.38,14.733-35.863a2.951,2.951,0,0,0-.435-2.991,55.389,55.389,0,0,0-12.306-10.875s-1.9.286-6.837-1.079l-2.751-.571-.6,5.14S413.725,404.383,407.671,406.715Z" transform="translate(41.275 35.522)" fill="#0071f2"/>
      <g id="Group_1" data-name="Group 1" transform="translate(427.441 424.881)" clip-path="url(#clip-path-2)">
        <path id="Path_116" data-name="Path 116" d="M388.435,433.106s28.6,2.126,32.976-8.345c0,0,8.8-22.83,6.537-33.777a.079.079,0,0,1,.119-.079c1.581,1.071,14.354,9.892,12.575,13.755l-14.733,35.863-38.959-1.38s-1.328.087-.7-1.134Z" transform="translate(-386.176 -389.167)" opacity="0.2"/>
      </g>
      <path id="Path_117" data-name="Path 117" d="M369.071,260.165s-12.322,4.886-24.107,22.56a51.551,51.551,0,0,0-3.865,6.925c-1.739,3.744-6.228,11.177-14.662,11.938a2.333,2.333,0,0,0-1.873,3.379c4.632,9.091,19.183,32.69,43.2,27.526,0,0,14.528-51.189,7.319-67Z" transform="translate(33.803 19.393)" fill="#0071f2"/>
      <path id="Path_118" data-name="Path 118" d="M368.6,260.165s-11.856,4.688-23.641,22.362a52.054,52.054,0,0,0-3.865,6.925c-1.739,3.744-6.228,11.177-14.662,11.938a2.333,2.333,0,0,0-1.873,3.379c4.632,9.091,19.183,32.69,43.2,27.526,0,0,14.409-51.117,7.208-66.927Z" transform="translate(33.803 19.393)" opacity="0.2"/>
      <path id="Path_119" data-name="Path 119" d="M378.683,232.648s-.419,13.422,9.8,19.831c0,0-14.907,4.093-17.887,16.055L357.611,257S373.15,257.429,378.683,232.648Z" transform="translate(37.825 15.957)" fill="#f9b499"/>
      <path id="Path_120" data-name="Path 120" d="M393.25,342.176l-.846,8.488s17.152,6.346,29.98,14.429a78.544,78.544,0,0,0,22.526,9.694c9.406,2.38,18.827,2.808,16.828-5.878,0,0,2.869-64.46-44.934-104.527-1.407-1.182-2.79-2.38-4.134-3.673-4.4-4.125-16.551-14.128-27.972-10.868Z" transform="translate(41.098 18.024)" fill="#0071f2"/>
      <path id="Path_121" data-name="Path 121" d="M407.82,295.425s19.531,24.2,25.064,55.068a10.976,10.976,0,0,0,5.754,7.877,34.077,34.077,0,0,0,20.345,3.665s-5.715,5.251-18.021,4.3a39.887,39.887,0,0,1-18.97-6.822c-4.964-3.324-14.456-8.726-30.383-14.62l.846-8.488s9.912,5.267,11.184-5.767C403.6,330.638,406.974,300.938,407.82,295.425Z" transform="translate(41.933 23.795)" opacity="0.2"/>
      <path id="Path_122" data-name="Path 122" d="M400.908,339.4l-.838,6.473s1.028,7.7-16.306,12.8c0,0-56.229,29.271-65.532,37.759,0,0-9.714,14.453,1.4,25.019a9.932,9.932,0,0,0,6.473,2.681l40.729,1.515a13.619,13.619,0,0,0,4.268-.524,302.443,302.443,0,0,0,29.324-10.177,18.586,18.586,0,0,1,7.675-1.388l4,.135a11.134,11.134,0,0,0,8.766-3.776,32.3,32.3,0,0,0,6.884-12.652,1.58,1.58,0,0,1,1.984-1.1c2.94.912,9.556,2.38,16.179-.135,0,0,21.981-6.346,22.408-19.942l-.048-12.311s-6.489,4.522-26.779-4.529C441.5,359.2,410.772,341.663,400.908,339.4Z" transform="translate(32.593 29.285)" fill="#2f2e41"/>
      <path id="Path_123" data-name="Path 123" d="M439.38,359.768s-.846,12.732-19.444,18.951l-22.827,7.639s39.876,5.656,51.431-12.446c0,0,2.679-2.967,1.581-11.74A30.345,30.345,0,0,1,439.38,359.768Z" transform="translate(42.597 31.828)" opacity="0.2"/>
      <path id="Path_124" data-name="Path 124" d="M318.74,405.191s-5.636,1.983-1.968,7.068c0,0,2.585,5.957,9.184,6.346l40.729,1.547,5.612-.793,2.529-.563,25.451-9.337a20.824,20.824,0,0,1,7.675-1.388s12.259,3.086,17.049-10.495c0,0-11.279,7.353-9.588,1.983l.482-6.782a.237.237,0,0,0-.443-.135c-1.9,3.554-8.291,14.858-8.773,6.917l-1.842-7.139a.4.4,0,0,0-.79,0c-.909,3.57-3.565,12-8.647,13.112l-23.388,5.894s-17.776,5.1-28.5-1.4a.587.587,0,0,1,.332-1.079l10.757.373a13.871,13.871,0,0,0,6.805-1.515l37.1-19.038,12.646.524a.183.183,0,0,0,.079-.341l-3.256-1.539a.334.334,0,0,1,0-.611l7.983-2.84-9.018-.571s-13.247,2.832-23.4,9.337l-23.712,10.693a19.763,19.763,0,0,1-8.149,1.753Z" transform="translate(32.742 34.778)" opacity="0.2"/>
      <path id="Path_125" data-name="Path 125" d="M347.6,450.5l152.737,6.7s-.877-3.966-14.053-4.291a1.426,1.426,0,0,1-1.383-1.586c.53-3.919.182-12.994-17.389-3.3a3.944,3.944,0,0,1-5.232-1.515,47.742,47.742,0,0,0-14.828-16.016,35.7,35.7,0,0,0-41.2,1.182A40.749,40.749,0,0,0,394.4,445.668a.741.741,0,0,1-1.209.167c-1.85-2.047-7-6.671-11.232-.111,0,0-3.818-11.018-11.935-8.623,0,0-7.446.4-8.133,6.885a4.3,4.3,0,0,1-2.458,3.546A38.176,38.176,0,0,1,347.6,450.5Z" transform="translate(36.617 39.912)" fill="#a7a9ac"/>
      <path id="Path_126" data-name="Path 126" d="M363.03,261.229l-5.138-4.188s14.29-5.553,18.242-20.966C376.167,236.075,375.376,258.286,363.03,261.229Z" transform="translate(37.859 16.385)" fill="#f7a48b"/>
      <ellipse id="Ellipse_2" data-name="Ellipse 2" cx="6.6" cy="8.972" rx="6.6" ry="8.972" transform="translate(413.876 233.263)" fill="#f9b499"/>
      <ellipse id="Ellipse_3" data-name="Ellipse 3" cx="21.499" cy="32.682" rx="21.499" ry="32.682" transform="translate(374.285 208.054)" fill="#f9b499"/>
      <path id="Path_127" data-name="Path 127" d="M354.475,204.435s-10.639,5.124-13.619,15.381c0,0-7.793-7-8.489-26.241a.617.617,0,0,1,.917-.563l5.011,2.88-6.386-8.416a.437.437,0,0,1,.261-.7c3.683-.746,21.341-3.919,31.245,1.42,0,0,26.818-2.562,27.245,18.8,0,0,9.793-2.562,9.793,11.534,0,0-2.98,9.828-8.086,13.676,0,0,0-8.543-6.6-8.972,0,0-2.758.214-3.6,1.626,0,0,.79,8.559,0,14.183,0,0-9.564,5.053-7.6-21.537C374.551,217.508,359.762,215.969,354.475,204.435Z" transform="translate(34.709 10.028)" fill="#2f2e41"/>
      <path id="Path_128" data-name="Path 128" d="M332.717,392.057s-37.236-51.9-37.236-66.617c0,0,4.8-20.625,26.218-16.4l49.511,17.452,14.8,36.069Z" transform="translate(30.32 25.423)" fill="#2f2e41"/>
      <path id="Path_129" data-name="Path 129" d="M332.717,392.057s-37.236-51.9-37.236-66.617c0,0,4.8-20.625,26.218-16.4l49.511,17.452,14.8,36.069Z" transform="translate(30.32 25.423)" opacity="0.2"/>
      <path id="Path_130" data-name="Path 130" d="M370.96,324.466s-.427,11.9-10.568,13.152c0,0-42.682,8.488-62.576,21.64,0,0,14.8,5.553,16.069,13.152,0,0,68.994-4.593,84.928-18.292a9.785,9.785,0,0,0,3.248-6.346l1.684-14.961S392.277,333.271,370.96,324.466Z" transform="translate(30.602 27.421)" fill="#f9b499"/>
      <path id="Path_131" data-name="Path 131" d="M359.964,317.085c1.288-12.311,8.607-72.432,28.454-67.244,0,0,29.245-6.1,24.194,49.9,0,0-3.557,32.849-6.1,41.558a2.483,2.483,0,0,1-2.371,1.777c-7.185.111-35.521-.508-49.519-16.658a2.489,2.489,0,0,1,.411-3.6l2.932-2.213a5.026,5.026,0,0,0,2-3.522Z" transform="translate(37.393 18.064)" fill="#0071f2"/>
      <path id="Path_132" data-name="Path 132" d="M296.736,330.613l7.849-12.692a1.191,1.191,0,0,1,1.581-.428l12.5,6.846a14.411,14.411,0,0,1,6.323,6.981l6.853,15.928,4.221-1.309-7.9-16.865a23.366,23.366,0,0,0-6.086-7.933l-7.335-6.219a1.46,1.46,0,0,1,1.035-2.57l17.057,1.126a.4.4,0,0,0,.15-.793l-11.239-3.633s-19.309-5.394-26.218,16.4C295.479,325.441,295.416,329.145,296.736,330.613Z" transform="translate(30.322 25.422)" opacity="0.2"/>
      <path id="Path_133" data-name="Path 133" d="M233.582,313.955c-11.927-.4-20.353-14.564-14.03-25.075,2.632-4.355,6.9-5.941,11.54-3.823a29.222,29.222,0,0,1,4.521,2.8c4.521.936,9.145-.381,12.646,4.038C256.2,301.889,244.055,314.351,233.582,313.955Z" transform="translate(20.886 22.384)" fill="#0071f2"/>
      <path id="Path_134" data-name="Path 134" d="M250.683,289.036c.111-.365-.371-.746-.632-.381-3.209,4.625-7.382-3.173-10.908-3.554a4.577,4.577,0,0,0-2.142.27,4,4,0,0,0-3.011-2.689c-3.952-.968-7.4,2.039-10.836-1.515-.221-.222-.585.1-.482.365,1.739,4.22,5.936,4.8,10.006,5.418-.316.222-.632.484-1.012.722-1.217.793-2.8.793-4.063,1.515a7.538,7.538,0,0,0-2.7,2.673c-.221.428.443.793.711.436,1.581-2.277,5.367.159,7.533.293,1.66.087,3.739-.278,4.521-1.92a2.785,2.785,0,0,0,.229-1.8c1.217.555,2.932,1.785,3.494,2.039a11.391,11.391,0,0,0,4.592,1.317,4.624,4.624,0,0,0,4.7-3.189Z" transform="translate(21.522 22.005)" fill="#2f2e41"/>
      <path id="Path_135" data-name="Path 135" d="M221.334,420.79c3.66-11.058,10.331-20.625,16.211-30.564,14.227-23.948,20.037-49.658,11.137-76.652-7.9-23.877-20.131-45.366-24.415-70.512-3.881-22.758-1.786-44.636,7.706-65.84.15-.333.7-.1.585.238-9.042,23.837-8.181,50.935-1.944,75.359,6.133,24,20.882,44.573,26.968,68.466,5.7,22.425.545,44.85-9.975,65.047-5.92,11.344-14.053,21.616-18.669,33.634-4.742,12.43-4.031,25.329-4.94,38.346a3.185,3.185,0,1,1-6.371,0C216.766,446.024,217.446,432.6,221.334,420.79Z" transform="translate(20.875 9.017)" fill="#bcbec0"/>
      <path id="Path_136" data-name="Path 136" d="M225.837,328.034c3.011-22.021,14.346-41.249,19.167-62.754A127.261,127.261,0,0,0,241,195.124c-.134-.389.482-.555.617-.167a150.526,150.526,0,0,1,8.694,62.381c-1.731,22.338-11.69,42.042-16.211,63.69-5,24.678-.435,47.381,6.655,71.075a211.364,211.364,0,0,1,9.042,65.221c-.071,3.966-6.268,4.006-6.189,0,.451-23.337-3.541-45.366-10.734-67.474C226.256,369.529,222.913,349.388,225.837,328.034Z" transform="translate(21.778 11.224)" fill="#d1d3d4"/>
      <path id="Path_137" data-name="Path 137" d="M256.434,294.675c11.951-.4,20.4-14.572,14.03-25.083-2.64-4.355-6.9-5.941-11.548-3.816a29.271,29.271,0,0,0-4.513,2.784c-4.521.952-9.137-.381-12.646,4.038C233.836,282.594,246.159,295.024,256.434,294.675Z" transform="translate(23.524 19.976)" fill="#0071f2"/>
      <path id="Path_138" data-name="Path 138" d="M243.56,272.91a11.627,11.627,0,0,0,4.616-1.317c.537-.262,2.261-1.515,3.494-2.047a2.626,2.626,0,0,0,.213,1.8c.838,1.65,2.917,2.015,4.513,1.92,2.126-.135,5.912-2.57,7.54-.286.269.381.948,0,.7-.436a7.419,7.419,0,0,0-2.7-2.681c-1.265-.706-2.83-.69-4.071-1.507-.371-.246-.672-.5-1-.73,4.071-.6,8.26-1.174,10.006-5.41.111-.27-.253-.587-.482-.365-3.446,3.57-6.884.563-10.828,1.515a4.02,4.02,0,0,0-3.043,2.689,4.506,4.506,0,0,0-2.15-.27c-3.525.42-7.683,8.178-10.892,3.554a.374.374,0,0,0-.64.373,4.6,4.6,0,0,0,4.711,3.2Z" transform="translate(23.475 19.594)" fill="#2f2e41"/>
      <path id="Path_139" data-name="Path 139" d="M229.784,381.443c-11.951-.4-20.4-14.564-14.045-25.075,2.64-4.355,6.916-5.941,11.548-3.823a30.66,30.66,0,0,1,4.513,2.776c4.521.96,9.153-.357,12.646,4.038C252.421,369.385,240.122,381.8,229.784,381.443Z" transform="translate(20.424 30.81)" fill="#0071f2"/>
      <path id="Path_140" data-name="Path 140" d="M246.854,356.518c.1-.357-.379-.754-.632-.373-3.209,4.625-7.382-3.173-10.908-3.554a4.475,4.475,0,0,0-2.142.27,4.06,4.06,0,0,0-3.011-2.7c-3.952-.952-7.4,2.054-10.836-1.515-.229-.222-.585.1-.482.365,1.731,4.22,5.936,4.759,10.006,5.41-.316.23-.632.484-1.012.73-1.217.793-2.79.793-4.071,1.515a7.4,7.4,0,0,0-2.7,2.673c-.221.4.435.793.711.42,1.581-2.269,5.359.167,7.533.3,1.66.1,3.739-.27,4.521-1.92a2.706,2.706,0,0,0,.221-1.793c1.225.555,2.94,1.777,3.5,2.039a11.517,11.517,0,0,0,4.592,1.317,4.632,4.632,0,0,0,4.7-3.181Z" transform="translate(21.059 30.429)" fill="#2f2e41"/>
      <path id="Path_141" data-name="Path 141" d="M239.619,237.476c-11.927-.4-20.384-14.58-14.022-25.091,2.632-4.355,6.9-5.941,11.54-3.808a28.165,28.165,0,0,1,4.521,2.784c4.521.952,9.145-.381,12.646,4.038C262.241,225.395,249.974,237.825,239.619,237.476Z" transform="translate(21.614 12.834)" fill="#0071f2"/>
      <path id="Path_142" data-name="Path 142" d="M256.721,212.542c.1-.365-.379-.746-.632-.381-3.209,4.633-7.382-3.125-10.908-3.554a4.727,4.727,0,0,0-2.158.278,3.957,3.957,0,0,0-3.011-2.7c-3.952-.968-7.4,2.047-10.852-1.507-.206-.23-.569.087-.466.357,1.739,4.236,5.928,4.815,10.006,5.418-.332.222-.632.484-1.012.722-1.217.793-2.8.793-4.063,1.515a7.514,7.514,0,0,0-2.7,2.673c-.229.428.435.793.7.444,1.51-2.285,5.367.151,7.533.286,1.66.087,3.739-.27,4.521-1.92a2.777,2.777,0,0,0,.229-1.8c1.217.571,2.932,1.785,3.494,2.039A11.39,11.39,0,0,0,252,215.731,4.616,4.616,0,0,0,256.721,212.542Z" transform="translate(22.249 12.456)" fill="#2f2e41"/>
      <path id="Path_143" data-name="Path 143" d="M159.274,434.127c26.083.746,52.269.793,78.344.793s52.4.849,78.431-1.023a.373.373,0,0,0,.277-.436.356.356,0,0,0-.277-.278c-2.371-.182-4.782-.286-7.114-.421-6.268-5.354-15.184-9.82-22.131-4.371-2.324-7.655-10.441-9.345-18.084-8.892,4.521-10.027-3.28-20.918-14.03-22.592-11.026-1.729-23.514,4.641-25.743,15.865-4.521-1.4-8.473.865-12.062,4.188-5.3-5.664-12.71.849-15.966,7.187a11.916,11.916,0,0,0-8.26-1.8,7.978,7.978,0,0,0-3.707,1.7c-.9.793-1.826,3.173-2.7,3.435s-3.952-1.349-5.066-1.515a11.517,11.517,0,0,0-6.141.968,9.382,9.382,0,0,0-5.035,5.807l-10.836.238a.578.578,0,0,0-.522.627.562.562,0,0,0,.617.523Z" transform="translate(13.791 36.43)" fill="#a7a9ac"/>
      <path id="Path_144" data-name="Path 144" d="M169.5,327.078c11.951-.4,20.4-14.564,14.03-25.075-2.624-4.355-6.9-5.941-11.532-3.823a30.745,30.745,0,0,0-4.521,2.776c-4.513.952-9.145-.357-12.646,4.053C146.9,314.973,159.165,327.4,169.5,327.078Z" transform="translate(13.022 24.023)" fill="#0071f2"/>
      <path id="Path_145" data-name="Path 145" d="M151.84,302.126c-.119-.357.379-.754.632-.373,3.209,4.625,7.382-3.173,10.908-3.554a4.475,4.475,0,0,1,2.142.27,4.06,4.06,0,0,1,3.011-2.705c3.952-.952,7.4,2.055,10.836-1.515.221-.222.585.1.482.365-1.731,4.22-5.936,4.76-10.006,5.418.316.222.632.484,1,.722,1.233.793,2.8.793,4.071,1.515a7.316,7.316,0,0,1,2.711,2.673c.221.413-.443.793-.711.42-1.581-2.269-5.367.167-7.532.309-1.66.087-3.739-.278-4.521-1.928a2.762,2.762,0,0,1-.229-1.793c-1.217.555-2.932,1.785-3.494,2.039a11.453,11.453,0,0,1-4.521,1.317A4.608,4.608,0,0,1,151.84,302.126Z" transform="translate(12.965 23.639)" fill="#2f2e41"/>
      <path id="Path_146" data-name="Path 146" d="M177.172,437.811c-3.162-9.519-8.9-17.785-13.966-26.344-12.235-20.7-17.294-42.78-9.6-66.062,6.8-20.569,17.389-39.139,21.1-60.779,3.343-19.657,1.5-38.512-6.679-56.662-.134-.286-.632,0-.506.214,7.738,20.537,7.035,43.851,1.668,64.92-5.288,20.672-18.005,38.425-23.246,58.97-4.916,19.332-.466,38.671,8.6,56.043,5.1,9.773,12.054,18.633,16.077,28.985,4.118,10.709,3.494,21.838,4.268,33.047a2.766,2.766,0,1,0,5.533,0C181.108,459.554,180.562,447.989,177.172,437.811Z" transform="translate(12.009 15.357)" fill="#d1d3d4"/>
      <path id="Path_147" data-name="Path 147" d="M172.712,396.323c11.951-.4,20.408-14.564,14.03-25.091-2.616-4.355-6.9-5.926-11.524-3.808a31.48,31.48,0,0,0-4.521,2.784c-4.521.952-9.129-.365-12.646,4.038C150.114,384.258,162.366,396.688,172.712,396.323Z" transform="translate(13.41 32.667)" fill="#0071f2"/>
      <path id="Path_148" data-name="Path 148" d="M155.105,371.406c-.119-.381.379-.793.632-.381,3.209,4.625,7.382-3.173,10.915-3.554a4.459,4.459,0,0,1,2.134.27,4.044,4.044,0,0,1,3.011-2.7c3.952-.952,7.4,2.055,10.836-1.515.229-.222.585.1.482.365-1.731,4.22-5.936,4.8-10.006,5.418.316.222.632.484,1,.722,1.233.793,2.806.793,4.071,1.515a7.315,7.315,0,0,1,2.711,2.673c.229.413-.451.793-.711.428-1.581-2.269-5.359.167-7.533.3-1.652.087-3.747-.286-4.521-1.92a2.738,2.738,0,0,1-.221-1.8c-1.225.555-3.019,1.785-3.5,2.039a11.391,11.391,0,0,1-4.592,1.317A4.608,4.608,0,0,1,155.105,371.406Z" transform="translate(13.359 32.287)" fill="#2f2e41"/>
      <path id="Path_149" data-name="Path 149" d="M176.22,343.818c-3.011-22.021-14.346-41.249-19.167-62.754A127.268,127.268,0,0,1,161.06,210.9c.134-.4-.482-.563-.632-.182a150.144,150.144,0,0,0-8.694,62.389c1.731,22.322,11.769,42.042,16.148,63.682,4.987,24.694.443,47.389-6.655,71.067a211.26,211.26,0,0,0-9.042,65.205c.079,3.966,6.268,3.966,6.2,0-.458-23.33,3.525-45.366,10.726-67.474C175.793,385.3,179.144,365.125,176.22,343.818Z" transform="translate(12.906 13.192)" fill="#bcbec0"/>
      <path id="Path_150" data-name="Path 150" d="M151.14,295.663c-11.951-.444-20.424-14.564-14.03-25.091,2.624-4.355,6.9-5.941,11.532-3.808a29.068,29.068,0,0,1,4.521,2.776c4.513.952,9.129-.357,12.646,4.038C173.745,283.573,161.494,296.012,151.14,295.663Z" transform="translate(10.923 20.099)" fill="#0071f2"/>
      <path id="Path_151" data-name="Path 151" d="M163.478,273.919a11.518,11.518,0,0,1-4.592-1.317c-.561-.262-2.276-1.515-3.494-2.047a2.778,2.778,0,0,1-.229,1.8c-.79,1.634-2.924,2.015-4.521,1.9-2.126-.119-5.888-2.554-7.533-.286-.253.4-.933,0-.711-.42a7.3,7.3,0,0,1,2.719-2.681c1.265-.722,2.83-.69,4.063-1.507.364-.246.68-.516,1-.746-4.071-.6-8.268-1.174-10.006-5.41-.1-.254.261-.587.482-.349,3.438,3.57,6.876.563,10.836,1.515a4.028,4.028,0,0,1,3.011,2.7,4.483,4.483,0,0,1,2.142-.286c3.525.42,7.7,8.178,10.908,3.57.261-.381.751,0,.632.373A4.616,4.616,0,0,1,163.478,273.919Z" transform="translate(11.555 19.719)" fill="#2f2e41"/>
      <path id="Path_152" data-name="Path 152" d="M170.16,260.332c11.935-.412,20.384-14.58,14.03-25.091-2.64-4.355-6.9-5.941-11.54-3.823a29.227,29.227,0,0,0-4.521,2.8c-4.521.952-9.129-.381-12.646,4.038C147.546,248.251,159.884,260.681,170.16,260.332Z" transform="translate(13.101 15.687)" fill="#0071f2"/>
      <path id="Path_153" data-name="Path 153" d="M152.5,235.4c-.119-.365.364-.746.624-.381,3.225,4.625,7.382-3.133,10.908-3.554a4.506,4.506,0,0,1,2.15.27,4.036,4.036,0,0,1,3.019-2.689c3.952-.968,7.382,2.039,10.828-1.515.229-.222.593.1.466.365-1.731,4.236-5.92,4.76-9.991,5.418.324.222.624.484,1,.722,1.241.793,2.806.793,4.071,1.515a7.332,7.332,0,0,1,2.7,2.673c.245.42-.435.793-.7.436-1.581-2.285-5.367.151-7.54.294-1.652.087-3.731-.278-4.513-1.928a2.61,2.61,0,0,1-.213-1.793c-1.233.555-3.011,1.785-3.494,2.039a11.627,11.627,0,0,1-4.616,1.317A4.608,4.608,0,0,1,152.5,235.4Z" transform="translate(13.044 15.309)" fill="#2f2e41"/>
      <path id="Path_154" data-name="Path 154" d="M154.479,365.043c-11.856,1.666-22.6-10.828-18.084-22.29,1.842-4.759,5.778-7.044,10.718-5.743a30.126,30.126,0,0,1,4.893,1.959c4.521.167,8.939-1.936,13.144,1.8C174.658,349.241,164.707,363.623,154.479,365.043Z" transform="translate(10.974 28.941)" fill="#0071f2"/>
      <path id="Path_155" data-name="Path 155" d="M163.161,341.33a11.816,11.816,0,0,1-4.742-.5c-.585-.167-2.482-1.071-3.794-1.42a2.6,2.6,0,0,1,.087,1.809,4.631,4.631,0,0,1-4.173,2.681c-2.118.238-6.252-1.515-7.422,1-.2.436-.941.151-.79-.293a7.583,7.583,0,0,1,2.221-3.11c1.13-.928,2.664-1.166,3.747-2.166.316-.3.593-.619.862-.9-4.11.1-8.347.27-10.789-3.6-.15-.238.15-.619.411-.436,4.007,2.919,6.884-.635,10.939-.381a4.1,4.1,0,0,1,3.494,2.134,4.651,4.651,0,0,1,2.063-.635c3.541-.2,9.042,6.727,11.342,1.586.2-.412.743-.119.7.27A4.631,4.631,0,0,1,163.161,341.33Z" transform="translate(11.335 28.61)" fill="#2f2e41"/>
      <path id="Path_156" data-name="Path 156" d="M256.99,449.85c-26.083.722-52.269.793-78.352.793s-52.388.841-78.423-1.031a.365.365,0,0,1,0-.73c2.371-.167,4.742-.286,7.114-.4,6.268-5.354,15.184-9.813,22.131-4.387,2.332-7.6,10.457-9.313,18.14-8.829-4.521-10.027,3.264-20.926,14.022-22.608,11.018-1.721,23.522,4.656,25.735,15.865,4.6-1.4,8.489.857,12.054,4.2,5.3-5.688,12.718.849,15.958,7.139a11.948,11.948,0,0,1,8.26-1.824,7.551,7.551,0,0,1,3.691,1.69c.917.746,1.842,3.173,2.711,3.435s3.952-1.364,5.066-1.515a11.659,11.659,0,0,1,6.141.952,9.429,9.429,0,0,1,5.035,5.807l10.836.246a.587.587,0,0,1-.079,1.166Z" transform="translate(6.687 38.396)" fill="#a7a9ac"/>
      <path id="Path_157" data-name="Path 157" d="M267.857,316.179c.988-4.537-3.667-5.941-3.667-5.941-4.324-1.658-7.327,2.34-7.327,2.34a11.062,11.062,0,0,1-5.019,3.316,11.5,11.5,0,0,0-3.343,1.745c-4.442,3.419-15.808,12.47-17.254,16.888-1.747,5.267,2.2,8.512,11.516,2.991a2.734,2.734,0,0,1,2.371-.246c2.158.793,7.5,1.587,15.729-5.315l8.694-4.236S266.324,322.2,267.857,316.179Z" transform="translate(22.511 25.594)" fill="#0071f2"/>
      <path id="Path_158" data-name="Path 158" d="M267.857,316.179c.988-4.537-3.667-5.941-3.667-5.941-4.324-1.658-7.327,2.34-7.327,2.34a11.062,11.062,0,0,1-5.019,3.316,11.5,11.5,0,0,0-3.343,1.745c-4.442,3.419-15.808,12.47-17.254,16.888-1.747,5.267,2.2,8.512,11.516,2.991a2.734,2.734,0,0,1,2.371-.246c2.158.793,7.5,1.587,15.729-5.315l8.694-4.236S266.324,322.2,267.857,316.179Z" transform="translate(22.511 25.594)" opacity="0.2"/>
      <path id="Path_159" data-name="Path 159" d="M236.435,342.9l25.585,44.652,22.59-32.389S249.8,346.6,236.435,342.9Z" transform="translate(23.187 29.722)" fill="#d1d3d4"/>
      <path id="Path_160" data-name="Path 160" d="M236.435,342.9l25.814,37.481,22.36-25.217-22.59,32.388Z" transform="translate(23.187 29.722)" opacity="0.2"/>
      <path id="Path_161" data-name="Path 161" d="M300.869,355.743s-7.9-7.29-6.908,1.356a1.458,1.458,0,0,1-1.478,1.65c-3.6-.119-11.729.619-15.484,8.932,0,0-8.236,7.758-2.316,13.7,0,0-7.722,24.821,9.271,15.516,0,0,5.928,1.809,10.275,1.031a7.9,7.9,0,0,0,10.014,0,11.309,11.309,0,0,0,3.746-5.973l5.375-20.5a2.986,2.986,0,0,1,2.1-2.134l1.439-.4S317.017,361.867,300.869,355.743Z" transform="translate(27.549 30.967)" fill="#0071f2"/>
      <path id="Path_162" data-name="Path 162" d="M284.391,387.581c.656-6,2.371-18.554,5.825-24.186a4.19,4.19,0,0,1,4.742-1.888c3.66,1.007,10.615,3.292,13.9,6.774a1.988,1.988,0,0,1,.451,1.912l-6.047,20.982a3.572,3.572,0,0,1-4.071,2.53l-11.856-2.189a3.584,3.584,0,0,1-2.94-3.935Z" transform="translate(28.977 32.025)" opacity="0.2"/>
      <path id="Path_163" data-name="Path 163" d="M248.719,350.848l31.932,26.883,1.8-7.758Z" transform="translate(24.671 30.714)" fill="#2f2e41"/>
      <path id="Path_164" data-name="Path 164" d="M280.652,377.731l.869-3.657-32.8-23.226Z" transform="translate(24.671 30.714)" opacity="0.2"/>
      <g id="Group_2" data-name="Group 2" transform="translate(301.995 397.3)" opacity="0.2">
        <path id="Path_165" data-name="Path 165" d="M274.581,379.823l-.34-.254,3.328-3.585,2.593-11.145.466.079-2.751,11.312Z" transform="translate(-274.241 -364.839)"/>
      </g>
    </g>
  </g>
</svg>
