<svg xmlns="http://www.w3.org/2000/svg" xmlns:xlink="http://www.w3.org/1999/xlink" width="701" height="695" viewBox="0 0 701 695">
  <defs>
    <clipPath id="clip-path">
      <ellipse id="Ellipse_1" data-name="Ellipse 1" cx="350.5" cy="347.5" rx="350.5" ry="347.5" transform="translate(610 232)" fill="#fff" stroke="#707070" stroke-width="1"/>
    </clipPath>
  </defs>
  <g id="Mask_Group_1" data-name="Mask Group 1" transform="translate(-610 -232)" clip-path="url(#clip-path)">
    <g id="plant-in-soil" transform="translate(491.334 110.319)">
      <path id="Path_1" data-name="Path 1" d="M816.507,788.178A107.117,107.117,0,0,0,727.7,700.149a107,107,0,0,0-153.2-40.93,120.358,120.358,0,0,0-20.943-28.242,118.938,118.938,0,0,0-145.991-17.9,121.619,121.619,0,0,0-21.29,16.424,116.5,116.5,0,0,0-22.333,29.72,106.95,106.95,0,0,0-153.291,40.843,106.921,106.921,0,0,0-88.811,88.029,23.979,23.979,0,0,0,5.475,19.639,25.4,25.4,0,0,0,19.292,8.951H791.654a25.311,25.311,0,0,0,19.379-8.951A24.01,24.01,0,0,0,816.507,788.178ZM251.921,769.147a11.95,11.95,0,0,1-11.471-11.558c0-6,5.475-11.3,11.471-11.3a11.718,11.718,0,0,1,11.471,11.3C263.305,763.672,258,769.147,251.921,769.147Zm76.906-45.188A11.95,11.95,0,0,1,317.357,712.4c0-6,5.475-11.3,11.471-11.3a11.427,11.427,0,1,1,0,22.855Zm38.583,43.971a11.95,11.95,0,0,1-11.471-11.558c0-6,5.475-11.3,11.471-11.3a11.718,11.718,0,0,1,11.471,11.3A11.887,11.887,0,0,1,367.411,767.93Zm78.731-21.2a11.95,11.95,0,0,1-11.471-11.558c0-6,5.475-11.3,11.471-11.3a11.718,11.718,0,0,1,11.471,11.3A11.887,11.887,0,0,1,446.142,746.727Zm16.6-62.394a11.95,11.95,0,0,1-11.471-11.558c0-6,5.475-11.3,11.471-11.3a11.427,11.427,0,1,1,0,22.855Zm62.481,95.85a11.95,11.95,0,0,1-11.471-11.558c0-6,5.475-11.3,11.471-11.3a11.427,11.427,0,1,1,0,22.855Zm19.813-51.531a11.95,11.95,0,0,1-11.471-11.558c0-6,5.475-11.3,11.471-11.3a11.427,11.427,0,1,1,0,22.854ZM634.453,725a11.95,11.95,0,0,1-11.471-11.558c0-6,5.475-11.3,11.471-11.3a11.718,11.718,0,0,1,11.471,11.3C645.837,719.527,640.536,725,634.453,725Zm67.608,42.928a11.95,11.95,0,0,1-11.471-11.558c0-6,5.475-11.3,11.471-11.3a11.427,11.427,0,1,1,0,22.855Z" fill="#fffdfd"/>
      <path id="Path_2" data-name="Path 2" d="M472.733,369.062v237.67a10.862,10.862,0,0,1-21.725,0V369.062a90.01,90.01,0,0,0,10.862.7C465.52,369.67,469.083,369.5,472.733,369.062Z" fill="#fff"/>
      <path id="Path_3" data-name="Path 3" d="M472.733,494.805a10.672,10.672,0,0,1-2.955,7.386,10.927,10.927,0,0,1-7.995,3.476,10.672,10.672,0,0,1-7.386-2.955,37.851,37.851,0,0,0-3.476-3.041,285.486,285.486,0,0,0-23.55-19.031,74.735,74.735,0,0,0,7.386-21.464c5.475,3.737,10.776,7.734,16.163,12.079,6.17,4.779,12.427,9.993,18.336,15.468A11.264,11.264,0,0,1,472.733,494.805Zm245.925-60.83c-19.9,18.162-32.674,39.8-45.014,60.569-19.726,33.456-38.323,64.914-81.512,67.782a120.155,120.155,0,0,1-12.34.7c-26.244,0-48.055-9.3-62.22-26.591a71.384,71.384,0,0,1-7.647-11.731c58.4-38.67,126-62.915,126.873-63.089a10.932,10.932,0,0,0,6.691-13.817,11.1,11.1,0,0,0-13.991-6.778c-3.476,1.3-67.695,24.071-126.612,62.22-2.259-13.556-1.13-28.329,3.737-43.363a90.881,90.881,0,0,1,21.9-36.758c35.976-35.716,98.718-38.236,186.486-7.386a10.715,10.715,0,0,1,3.65,18.249ZM509.926,524.7a328.438,328.438,0,0,0-37.28,28.329,39.556,39.556,0,0,0-3.476,3.042,11.6,11.6,0,0,1-7.386,2.868,10.944,10.944,0,0,1-7.473-18.944c5.735-5.3,11.992-10.428,18.336-15.468,9.733-7.56,19.813-14.6,30.154-21.29A76.091,76.091,0,0,0,509.926,524.7Z" fill="#fff9f9"/>
      <path id="Path_4" data-name="Path 4" d="M549.639,281.728a88.274,88.274,0,0,1-76.906,87.334V250.444a10.862,10.862,0,0,0-21.725,0V368.975a88.082,88.082,0,0,1-77.08-87.334c0-44.84,70.91-144.514,79.078-155.724,4-5.648,13.556-5.648,17.641,0C478.729,137.214,549.639,236.975,549.639,281.728ZM286.334,398.434a11,11,0,0,0,7.213,13.643c.869.348,71.953,22.768,133.825,68.564a71.938,71.938,0,0,1-7.647,11.558c-14.947,18.336-38.149,28.155-66.13,28.155a114.81,114.81,0,0,1-13.3-.782c-45.362-2.868-65.175-36.411-86.2-71.953-13.209-22.333-26.939-45.448-48.316-64.914a11.5,11.5,0,0,1-3.3-10.254,10.975,10.975,0,0,1,7.126-8.169c93.417-32.674,160.156-30.067,198.565,7.821,10.254,10.254,18.162,23.637,23.115,38.931,5.3,16.772,6.431,33.2,3.476,48.142-63-45.1-131.305-66.826-134.694-67.868A11.038,11.038,0,0,0,286.334,398.434Z" fill="#fff"/>
    </g>
  </g>
</svg>
