<svg xmlns="http://www.w3.org/2000/svg" xmlns:xlink="http://www.w3.org/1999/xlink" width="686" height="481" viewBox="0 0 686 481">
  <defs>
    <clipPath id="clip-path">
      <rect id="Rectangle_10" data-name="Rectangle 10" width="686" height="481" transform="translate(192 2914)" fill="#fff" stroke="#707070" stroke-width="1"/>
    </clipPath>
  </defs>
  <g id="Mask_Group_4" data-name="Mask Group 4" transform="translate(-192 -2914)" clip-path="url(#clip-path)">
    <g id="Business_support-rafiki" data-name="Business support-rafiki" transform="translate(247.397 2854.192)">
      <g id="freepik--background-complete--inject-3">
        <path id="Path_166" data-name="Path 166" d="M125.866,197.169H110.831a2.8,2.8,0,0,1-2.8-2.75v-14.9c0-2.738-.644-5.3-2.531-6.5a2.761,2.761,0,0,0-4.107,2.025c-.7,4.406-2.761,13.356-8.513,18.924a12.436,12.436,0,0,0-3.152,7.777V228.3c0,2.6,4.6,4.705,10.124,4.705h22.778a7.984,7.984,0,0,0,7.984-7.984v-3.451a15.715,15.715,0,0,1,1.933-7.2,11.4,11.4,0,0,0,1.288-5.28v-3.946A7.984,7.984,0,0,0,125.866,197.169Z" fill="#ebebeb"/>
        <rect id="Rectangle_11" data-name="Rectangle 11" width="9.721" height="32.89" transform="translate(77.031 198.135)" fill="#ebebeb"/>
        <path id="Path_167" data-name="Path 167" d="M439.537,293.205l8.409-23.089a24.584,24.584,0,0,1,14.116,13.276Z" fill="#f5f5f5"/>
        <path id="Path_168" data-name="Path 168" d="M439.537,293.205l7.167,23.5a24.57,24.57,0,1,1,1.127-46.638Z" fill="#e0e0e0"/>
        <path id="Path_169" data-name="Path 169" d="M439.537,293.205l22.571-9.709A24.561,24.561,0,0,1,446.8,316.674Z" fill="#ebebeb"/>
        <path id="Path_170" data-name="Path 170" d="M179.775,309.944a40.148,40.148,0,0,0-5.752,13.862l-7.742.736V339.5l7.742.725a40.115,40.115,0,0,0,5.752,13.874l-4.912,5.982,10.607,10.607,5.971-4.947a40.115,40.115,0,0,0,13.874,5.752l.725,7.742h14.955l.736-7.742a40.149,40.149,0,0,0,13.862-5.752l5.982,4.947,10.607-10.607-4.947-5.971a39.862,39.862,0,0,0,5.752-13.874l7.754-.725V324.554l-7.754-.736a39.9,39.9,0,0,0-5.752-13.862l4.947-5.982-10.6-10.618L235.6,298.3a39.9,39.9,0,0,0-13.862-5.752l-.736-7.754H206.05l-.725,7.754a39.862,39.862,0,0,0-13.874,5.752l-5.971-4.947-10.618,10.607ZM227.563,318a14.058,14.058,0,1,1,0-.011Z" fill="#f0f0f0"/>
        <path id="Path_171" data-name="Path 171" d="M158.757,105.688a64.987,64.987,0,0,0-9.3,22.5l-12.562,1.15v24.343l12.574,1.15a64.745,64.745,0,0,0,9.284,22.571l-8.053,9.7,17.256,17.256,9.7-8.053a65.171,65.171,0,0,0,22.514,9.272l1.15,12.562h24.343l1.15-12.562a64.986,64.986,0,0,0,22.5-9.3l9.7,8.053,17.256-17.256-8.053-9.7a65.182,65.182,0,0,0,9.284-22.5l12.563-1.15V129.375l-12.562-1.15a65.17,65.17,0,0,0-9.3-22.5l8.053-9.7L259,78.769l-9.7,8.053a64.986,64.986,0,0,0-22.5-9.3l-1.15-12.562H201.322l-1.15,12.562a65.171,65.171,0,0,0-22.5,9.3l-9.7-8.053L150.715,96.025Zm77.549,13.046a32.249,32.249,0,1,1,.011,0Z" fill="#f5f5f5"/>
        <path id="Path_172" data-name="Path 172" d="M333.274,186.228a48.1,48.1,0,0,0-6.9,16.612l-9.272.874v17.958l9.272.874a47.949,47.949,0,0,0,6.9,16.6l-5.925,7.156L340,258.957l7.156-5.925a47.823,47.823,0,0,0,16.6,6.9l.92,9.261h17.958l.874-9.272a47.87,47.87,0,0,0,16.612-6.9l7.156,5.925,12.655-12.655-5.925-7.156a47.926,47.926,0,0,0,6.845-16.6l9.272-.874V203.715l-9.272-.874a48.316,48.316,0,0,0-6.9-16.612l5.925-7.144L407.222,166.43l-7.156,5.925a47.869,47.869,0,0,0-16.612-6.9l-.874-9.272h-17.9l-.874,9.272a48.018,48.018,0,0,0-16.6,6.9l-7.156-5.913L327.4,179.1Zm57.221,9.629a23.8,23.8,0,1,1-33.661,0A23.8,23.8,0,0,1,390.5,195.857Z" fill="#f0f0f0"/>
        <path id="Path_173" data-name="Path 173" d="M115.306,280a24.722,24.722,0,0,0-3.451,8.432l-4.705.437v9.088l4.705.449a24.527,24.527,0,0,0,3.451,8.421l-3,3.624,6.442,6.442,3.635-3a24.158,24.158,0,0,0,8.421,3.451l.437,4.705h9.111l.449-4.705a24.308,24.308,0,0,0,8.421-3.451l3.624,3,6.442-6.442-3-3.624a24.309,24.309,0,0,0,3.451-8.421l4.774-.449v-9.088l-4.705-.437A24.273,24.273,0,0,0,156.352,280l3-3.624-6.442-6.442-3.624,3a24.307,24.307,0,0,0-8.421-3.451l-.449-4.705h-9.111l-.437,4.705a24.158,24.158,0,0,0-8.421,3.451l-3.635-3-6.442,6.442Zm29.025,4.889a12.068,12.068,0,1,1-17.072,0A12.068,12.068,0,0,1,144.331,284.888Z" fill="#e0e0e0"/>
        <path id="Path_174" data-name="Path 174" d="M439.687,143.548a24.366,24.366,0,0,0-3.451,8.421l-4.705.449v9.1l4.705.449a24.364,24.364,0,0,0,3.451,8.421l-3.014,3.635,6.442,6.442,3.635-3.014a24.365,24.365,0,0,0,8.421,3.451l.449,4.705h9.146l.449-4.694a24.366,24.366,0,0,0,8.421-3.451l3.635,3.014,6.442-6.442L480.7,170.4a24.365,24.365,0,0,0,3.451-8.421l4.694-.449v-9.1l-4.705-.449a24.364,24.364,0,0,0-3.451-8.421l3.014-3.635-6.442-6.442-3.635,3.014a24.366,24.366,0,0,0-8.421-3.451l-.449-4.705h-9.1l-.449,4.705a24.366,24.366,0,0,0-8.421,3.451l-3.67-3.049-6.442,6.442Zm29.025,4.855a12.079,12.079,0,1,1-17.084,0,12.079,12.079,0,0,1,17.084,0Z" fill="#e0e0e0"/>
        <path id="Path_175" data-name="Path 175" d="M451.743,224.491a14.955,14.955,0,0,0-2.14,5.177l-2.888.265v5.591l2.888.276a14.887,14.887,0,0,0,2.14,5.165l-1.852,2.232,3.957,3.946,2.22-1.841a15.163,15.163,0,0,0,5.177,2.14l.265,2.876h5.556l.276-2.876a15.105,15.105,0,0,0,5.165-2.14l2.232,1.841,3.946-3.946-1.841-2.232a15.105,15.105,0,0,0,2.14-5.165l2.876-.276v-5.591l-2.888-.265a15.163,15.163,0,0,0-2.14-5.177l1.841-2.22-3.946-3.957-2.232,1.852a14.886,14.886,0,0,0-5.165-2.14l-.265-2.9h-5.591l-.265,2.888a14.794,14.794,0,0,0-5.165,2.14l-2.232-1.852-3.957,3.957Zm17.808,3a7.409,7.409,0,1,1-10.48,0A7.409,7.409,0,0,1,469.552,227.494Z" fill="#f0f0f0"/>
        <rect id="Rectangle_12" data-name="Rectangle 12" width="17.751" height="46.684" transform="translate(83.313 365.612)" fill="#e0e0e0"/>
        <rect id="Rectangle_13" data-name="Rectangle 13" width="17.751" height="31.843" transform="translate(105.435 380.452)" fill="#e0e0e0"/>
        <rect id="Rectangle_14" data-name="Rectangle 14" width="17.751" height="15.922" transform="translate(126.925 396.374)" fill="#e0e0e0"/>
        <path id="Path_176" data-name="Path 176" d="M510.69,379.866H302.754a6.753,6.753,0,0,1-6.741-6.741V70.244a6.753,6.753,0,0,1,6.741-6.741H510.69a6.753,6.753,0,0,1,6.741,6.741v302.88a6.753,6.753,0,0,1-6.741,6.741ZM302.754,63.79a6.465,6.465,0,0,0-6.454,6.454v302.88a6.465,6.465,0,0,0,6.454,6.454H510.69a6.454,6.454,0,0,0,6.454-6.454V70.244a6.454,6.454,0,0,0-6.454-6.454Z" fill="#e0e0e0"/>
        <path id="Path_177" data-name="Path 177" d="M270.91,379.866H62.985a6.753,6.753,0,0,1-6.753-6.741V70.244A6.753,6.753,0,0,1,62.985,63.5H270.91a6.741,6.741,0,0,1,6.741,6.741v302.88a6.741,6.741,0,0,1-6.741,6.741ZM62.985,63.79a6.465,6.465,0,0,0-6.465,6.454v302.88a6.465,6.465,0,0,0,6.465,6.511H270.91a6.454,6.454,0,0,0,6.454-6.454V70.244a6.454,6.454,0,0,0-6.454-6.454Z" fill="#e0e0e0"/>
        <rect id="Rectangle_15" data-name="Rectangle 15" width="575.205" height="0.288" transform="translate(0 450.121)" fill="#e0e0e0"/>
        <rect id="Rectangle_16" data-name="Rectangle 16" width="18.476" height="0.288" transform="translate(75.398 473.647)" fill="#e0e0e0"/>
        <rect id="Rectangle_17" data-name="Rectangle 17" width="61.581" height="0.288" transform="translate(211.929 470.529)" fill="#e0e0e0"/>
        <rect id="Rectangle_18" data-name="Rectangle 18" width="41.702" height="0.288" transform="translate(95.024 484.334)" fill="#e0e0e0"/>
        <rect id="Rectangle_19" data-name="Rectangle 19" width="49.686" height="0.288" transform="translate(451.214 470.38)" fill="#e0e0e0"/>
        <rect id="Rectangle_20" data-name="Rectangle 20" width="7.282" height="0.288" transform="translate(511.15 470.38)" fill="#e0e0e0"/>
        <rect id="Rectangle_21" data-name="Rectangle 21" width="61.996" height="0.288" transform="translate(379.728 477.547)" fill="#e0e0e0"/>
      </g>
      <g id="freepik--Shadow--inject-3">
        <path id="Path_178" data-name="Path 178" d="M522.781,535.321c0,3.026-105.3,5.487-235.178,5.487s-235.178-2.416-235.178-5.487,105.3-5.5,235.178-5.5S522.781,532.284,522.781,535.321Z" fill="#f5f5f5"/>
      </g>
      <g id="freepik--Plant--inject-3">
        <path id="Path_179" data-name="Path 179" d="M433.314,499.428a19.188,19.188,0,0,0-4.337-4.452,5.246,5.246,0,0,0-4.981-.92c-2.094.851-3.049,3.451-2.761,5.66a17.533,17.533,0,0,0,2.634,6.9c5.43,7.961,10.457,15.243,18.844,21.156C442.713,517.926,438.306,507.86,433.314,499.428Z" fill="#407bff"/>
        <path id="Path_180" data-name="Path 180" d="M460.981,500.808c-1.875-1.035-5.372.426-7.087,1.7a26.1,26.1,0,0,0-7.524,8.916c-2.634,4.705-2.934,11.3-3.267,15.5,6.638-5.4,13.4-10.917,17.958-18.165a9.629,9.629,0,0,0,1.668-4.107,3.957,3.957,0,0,0-1.749-3.842Z" fill="#407bff"/>
        <path id="Path_181" data-name="Path 181" d="M443.7,531.9a.288.288,0,0,1-.276-.23,64.608,64.608,0,0,0-8.294-20.512.289.289,0,1,1,.495-.3,65.378,65.378,0,0,1,8.364,20.707.3.3,0,0,1-.219.345Z" fill="#263238"/>
        <path id="Path_182" data-name="Path 182" d="M442.828,527.843h-.092a.288.288,0,0,1-.173-.368,44.867,44.867,0,0,1,7.708-13.425.29.29,0,0,1,.449.368A44.141,44.141,0,0,0,443.1,527.67.287.287,0,0,1,442.828,527.843Z" fill="#263238"/>
      </g>
      <g id="freepik--Arrow--inject-3">
        <path id="Path_183" data-name="Path 183" d="M489.235,351.151l-25.562-1.933,9.8,11.5-37.3,29.577-62.467-.138-96.347,52.47H104.641l-64.78,89.79H90.054l35.582-48.743H277.364L373.607,432.7l77.354.173,50.123-39.77,9.445,11.078,2.128-25.551,2.14-25.551Z" fill="#407bff"/>
      </g>
      <g id="freepik--speech-bubble--inject-3">
        <circle id="Ellipse_4" data-name="Ellipse 4" cx="23.48" cy="23.48" r="23.48" transform="matrix(0.765, -0.644, 0.644, 0.765, 330.113, 90.044)" fill="#407bff"/>
        <path id="Path_184" data-name="Path 184" d="M351.4,107l-6.028.483-1.047,7.547,7.282-1.795Z" fill="#407bff"/>
        <path id="Path_185" data-name="Path 185" d="M389.276,88.754A.276.276,0,0,1,389,88.5a23.089,23.089,0,0,0-12.355-17.82.3.3,0,0,1-.126-.391.288.288,0,0,1,.38-.127,23.652,23.652,0,0,1,12.655,18.28.276.276,0,0,1-.253.311Z" fill="#407bff"/>
        <path id="Path_186" data-name="Path 186" d="M389.426,95.726h-.057a.288.288,0,0,1-.219-.345,8.214,8.214,0,0,0,.092-3.348.288.288,0,0,1,.23-.334.276.276,0,0,1,.334.23,8.721,8.721,0,0,1-.092,3.578.3.3,0,0,1-.288.219Z" fill="#407bff"/>
        <path id="Path_187" data-name="Path 187" d="M354.442,87.132a10.515,10.515,0,0,0-1.484,3.589l-2,.2v3.888l2,.184a10.574,10.574,0,0,0,1.484,3.6l-1.266,1.5,2.75,2.749,1.542-1.277a10.573,10.573,0,0,0,3.6,1.484l.184,2h3.888l.2-2a10.515,10.515,0,0,0,3.589-1.484l1.507,1.323,2.784-2.8-1.288-1.5a10.135,10.135,0,0,0,1.484-3.6l2.013-.184V90.882l-2.013-.2a10.079,10.079,0,0,0-1.484-3.589l1.288-1.553-2.784-2.715-1.553,1.277a10.515,10.515,0,0,0-3.589-1.484l-.2-2h-3.865l-.184,2a10.573,10.573,0,0,0-3.6,1.484l-1.53-1.277-2.738,2.749Zm12.47,2a5.257,5.257,0,1,1-3.722-1.544,5.257,5.257,0,0,1,3.722,1.544Z" fill="#fff"/>
      </g>
      <g id="freepik--Character--inject-3">
        <path id="Path_188" data-name="Path 188" d="M207.235,232.889s6.166-9.2,13.908-7.294,8.2,14.541,8.2,14.541l-4.291-1.484s1.4-9.146-4.107-10.446-10.664,6.063-10.664,6.063l-2.473-1.311" fill="#263238"/>
        <path id="Path_189" data-name="Path 189" d="M166.948,276.754l2.347-6.1,17-44.1,65.5,19.787L238.193,299.3Z" fill="#407bff"/>
        <path id="Path_190" data-name="Path 190" d="M222.2,212.711c-1,.334-6.615,7.075-7.742,9s-1.254,3.175-.391,3.831a7.673,7.673,0,0,0,2.117,1.323c.265,0-.932,1.99.587,2.98s2.3.794,2.3.794-.391,2.911,1.588,3.7,2.842-.138,3.175,0,2.117-3.244,2.117-3.244l2.3,3.566a13.9,13.9,0,0,0,2.117-3.037c1.058-1.99.989-7.6.989-7.6l-1.058-5.027,1.795-7.213s-8.732-1.15-8.8-.978S222.2,212.711,222.2,212.711Z" fill="#e9b376"/>
        <path id="Path_191" data-name="Path 191" d="M240.263,291.249l-70.578-21.593-2.738,7.1L238.193,299.3Z" opacity="0.2"/>
        <path id="Path_192" data-name="Path 192" d="M394.66,219.82s.242.782-.69,2.3-2.957.46-2.945.725a8.053,8.053,0,0,1-1.231,2.163c-.621.886-1.887.805-3.854-.23s-8.939-6.373-9.307-7.351c0,0-1.76-.978-1.967-1.035s.621-8.824.621-8.824l7.271,1.473,4.981-1.265s5.614-.311,7.639.667c.357.161.679.334.978.506a1.714,1.714,0,0,1,.127,2.9l-1.45,1.035s1.427.771,2.427,1.369a1.91,1.91,0,0,1,.943,1.875,1.426,1.426,0,0,1-.1.449,1.07,1.07,0,0,1-1.311.621,2.186,2.186,0,0,1-1.565,2.3C394.591,219.728,394.66,219.82,394.66,219.82Z" fill="#e9b376"/>
        <path id="Path_193" data-name="Path 193" d="M390.933,215.886a2.082,2.082,0,0,1-.932-.219,1.576,1.576,0,0,1-.771-.955,4.6,4.6,0,0,1-.092-2.462,8.6,8.6,0,0,1-1.657,1.369,3.98,3.98,0,0,1-1.565.667,2.2,2.2,0,0,1-1.726-.4.288.288,0,1,1,.357-.449,1.588,1.588,0,0,0,1.277.276,3.29,3.29,0,0,0,1.346-.575,8.053,8.053,0,0,0,2.3-2.174h0a.874.874,0,0,1,.506-.656.278.278,0,0,1,.311.426c-.1.161-.2.322-.311.472a5.637,5.637,0,0,0-.2,3.313,1.081,1.081,0,0,0,.472.633,1.392,1.392,0,0,0,1.311,0c.644-.437,1.277-.955,2.025-1.542l1.611-1.277a.291.291,0,0,1,.357.46c-.6.449-1.15.874-1.611,1.265a22.8,22.8,0,0,1-2.071,1.565A1.611,1.611,0,0,1,390.933,215.886Z" fill="#263238" opacity="0.1"/>
        <path id="Path_194" data-name="Path 194" d="M386.791,224.4a1.334,1.334,0,0,1-.863-.437,9.2,9.2,0,0,1-1.277-1.565,1.99,1.99,0,0,1-.4-1.772,1.553,1.553,0,0,1,1.15-.932,3.186,3.186,0,0,1,1.369.058,10.226,10.226,0,0,1,1.358.368,4.457,4.457,0,0,1-.345-.552,1.657,1.657,0,0,1,.092-1.99,1.806,1.806,0,0,1,1.737-.15,24.309,24.309,0,0,1,4.9,2.025.3.3,0,0,1,.115.391.288.288,0,0,1-.391.115,24.16,24.16,0,0,0-4.786-1.979c-.38-.115-.909-.23-1.15,0s-.2.84,0,1.288a4.245,4.245,0,0,0,1.312,1.473l.6.345a.3.3,0,0,1,.092.391.276.276,0,0,1-.368.115,4.142,4.142,0,0,1-.621-.357,9.341,9.341,0,0,0-2.646-.955,2.669,2.669,0,0,0-1.15,0,1,1,0,0,0-.748.564,1.5,1.5,0,0,0,.345,1.266,9.085,9.085,0,0,0,1.15,1.461c.219.207.38.3.495.276a.276.276,0,0,1,.334.23.288.288,0,0,1-.23.334Z" fill="#263238" opacity="0.1"/>
        <path id="Path_195" data-name="Path 195" d="M389.011,217.876a.311.311,0,0,1-.23-.1,2.5,2.5,0,0,1-.506-1.311,1.76,1.76,0,0,1,.207-1,1.208,1.208,0,0,1,.92-.61.289.289,0,1,1,.046.575.61.61,0,0,0-.472.322,1.242,1.242,0,0,0-.127.679,1.771,1.771,0,0,0,.391.989.3.3,0,0,1,0,.4A.345.345,0,0,1,389.011,217.876Z" fill="#263238" opacity="0.1"/>
        <path id="Path_196" data-name="Path 196" d="M396.708,217.428a.322.322,0,0,1-.15,0,23.007,23.007,0,0,0-4.233-2.186.288.288,0,0,1-.161-.368.276.276,0,0,1,.368-.161,22.641,22.641,0,0,1,4.325,2.232.276.276,0,0,1,.092.391A.288.288,0,0,1,396.708,217.428Z" fill="#263238" opacity="0.1"/>
        <path id="Path_197" data-name="Path 197" d="M219.866,367.878l-10.894,23.756,9.963,5.453,14.817-24Z" fill="#e9b376"/>
        <path id="Path_198" data-name="Path 198" d="M211.181,390.461c.656,1.944,3.635,3.325,5.476,3.014l1.058-1.852c1.093-1.461,2.059-1.9,3.647-.759.782.552,1.277,2.128,1.15,4.015a11.872,11.872,0,0,0,.621,5.269s5.545,7.88,7.823,10.193c1.357,1.369,3.118,3.3,3.348,5.672a9.618,9.618,0,0,1-.081,2.3,8.491,8.491,0,0,1-.805,2l-19.235-10.423a10,10,0,0,0-2.2-2.634,3.025,3.025,0,0,0-2.876.184l-7.018-3.739,1.15-2.83h0c.3-.748.633-1.611.989-2.519,1.53-3.9,4.349-8.053,4.786-9.111C209.754,387.274,211.181,390.461,211.181,390.461Z" fill="#263238"/>
        <path id="Path_199" data-name="Path 199" d="M226.217,404.22a.3.3,0,0,0-.311-.2,3.452,3.452,0,0,0-1.749.6c-.276.2,0,.667.288.472a3.06,3.06,0,0,1,1.542-.529.253.253,0,0,0,.23-.345Z" fill="#407bff"/>
        <path id="Path_200" data-name="Path 200" d="M225.17,402.644a.3.3,0,0,0-.311-.2,3.52,3.52,0,0,0-1.749.61c-.276.184,0,.667.288.472a3.186,3.186,0,0,1,1.542-.541.253.253,0,0,0,.23-.334Z" fill="#407bff"/>
        <path id="Path_201" data-name="Path 201" d="M224.042,401.033a.334.334,0,0,0-.311-.2,3.52,3.52,0,0,0-1.7.656c-.276.184,0,.667.288.472a3.06,3.06,0,0,1,1.542-.529.265.265,0,0,0,.23-.345Z" fill="#407bff"/>
        <path id="Path_202" data-name="Path 202" d="M234.293,417.242a4.528,4.528,0,0,1-.092,1.093,8.892,8.892,0,0,1-.817,2l-19.235-10.423a10,10,0,0,0-2.2-2.634,3.025,3.025,0,0,0-2.876.184l-7.018-3.739,1.15-2.83h0l.161-.414Z" fill="#fff" opacity="0.2"/>
        <path id="Path_203" data-name="Path 203" d="M223.26,401.551l.219-.506a13.988,13.988,0,0,1,1.047-2.071,4.6,4.6,0,0,1,1.772-1.645,1.323,1.323,0,0,1,1.288-.057,1.266,1.266,0,0,1,.472,1.288A2.968,2.968,0,0,1,226.8,400.5a10.744,10.744,0,0,1-3.014.943Zm3.8-3.842a1.151,1.151,0,0,0-.506.138,4.038,4.038,0,0,0-1.542,1.438,11.389,11.389,0,0,0-.782,1.484,7.81,7.81,0,0,0,2.3-.736,2.416,2.416,0,0,0,1.024-1.553c0-.253,0-.587-.207-.713A.4.4,0,0,0,227.057,397.708Z" fill="#407bff"/>
        <path id="Path_204" data-name="Path 204" d="M223.893,401.689l-.414-.345a10.112,10.112,0,0,1-2.174-2.3,2.933,2.933,0,0,1-.173-2.3,1.288,1.288,0,0,1,1.035-.9,1.381,1.381,0,0,1,1.15.667,4.6,4.6,0,0,1,.748,2.3,13.15,13.15,0,0,1-.069,2.3Zm-1.68-5.257h0c-.242,0-.437.288-.518.529a2.3,2.3,0,0,0,.15,1.852,7.432,7.432,0,0,0,1.6,1.726,10.239,10.239,0,0,0,0-1.68,4.05,4.05,0,0,0-.656-2c-.1-.161-.322-.426-.575-.426Z" fill="#407bff"/>
        <path id="Path_205" data-name="Path 205" d="M325.635,311.968l-10.883,23.756,9.951,5.453,14.817-24Z" fill="#e9b376"/>
        <path id="Path_206" data-name="Path 206" d="M316.95,334.551c.667,1.944,3.635,3.325,5.476,3.014l1.058-1.852c1.093-1.461,2.071-1.9,3.647-.759.782.552,1.277,2.128,1.15,4.015a11.791,11.791,0,0,0,.621,5.257s5.556,7.892,7.823,10.2c1.357,1.369,3.118,3.3,3.348,5.672a10.228,10.228,0,0,1-.069,2.3,9.41,9.41,0,0,1-.817,2l-19.235-10.423a10,10,0,0,0-2.2-2.634,3.026,3.026,0,0,0-2.876.184l-7.018-3.739,1.15-2.83h0c.3-.748.633-1.611.989-2.519,1.53-3.911,4.349-8.053,4.8-9.111C315.523,331.318,316.95,334.551,316.95,334.551Z" fill="#263238"/>
        <path id="Path_207" data-name="Path 207" d="M331.986,348.3a.322.322,0,0,0-.3-.2,3.451,3.451,0,0,0-1.749.61c-.288.2,0,.667.276.472a3.141,3.141,0,0,1,1.542-.529.265.265,0,0,0,.242-.345Z" fill="#407bff"/>
        <path id="Path_208" data-name="Path 208" d="M330.939,346.7a.3.3,0,0,0-.311-.2,3.659,3.659,0,0,0-1.749.6c-.276.2,0,.679.288.483a3.083,3.083,0,0,1,1.542-.541.253.253,0,0,0,.23-.334Z" fill="#407bff"/>
        <path id="Path_209" data-name="Path 209" d="M329.811,345.123a.322.322,0,0,0-.311-.2,3.555,3.555,0,0,0-1.749.61c-.276.184,0,.667.288.472a3.061,3.061,0,0,1,1.542-.529.265.265,0,0,0,.23-.345Z" fill="#407bff"/>
        <path id="Path_210" data-name="Path 210" d="M340.061,361.332a9.561,9.561,0,0,1-.092,1.15,8.052,8.052,0,0,1-.817,2l-19.235-10.423a10.136,10.136,0,0,0-2.186-2.634,3.014,3.014,0,0,0-2.876.184l-7.029-3.739,1.15-2.83h0l.173-.414Z" fill="#fff" opacity="0.2"/>
        <path id="Path_211" data-name="Path 211" d="M329.017,345.641l.219-.506a13.646,13.646,0,0,1,1.058-2.082,4.532,4.532,0,0,1,1.76-1.634,1.323,1.323,0,0,1,1.289,0,1.254,1.254,0,0,1,.472,1.288,2.968,2.968,0,0,1-1.254,1.944,10.215,10.215,0,0,1-3,.943Zm3.8-3.854a1.15,1.15,0,0,0-.506.15,3.946,3.946,0,0,0-1.542,1.438,11.386,11.386,0,0,0-.782,1.484,8.18,8.18,0,0,0,2.243-.736,2.4,2.4,0,0,0,1.024-1.553c0-.253,0-.587-.207-.713a.414.414,0,0,0-.219-.069Z" fill="#407bff"/>
        <path id="Path_212" data-name="Path 212" d="M329.662,345.779l-.414-.345a10.01,10.01,0,0,1-2.174-2.3,2.98,2.98,0,0,1-.173-2.3,1.15,1.15,0,0,1,2.14-.23,4.659,4.659,0,0,1,.759,2.3,14.323,14.323,0,0,1-.08,2.3Zm-1.68-5.257h0c-.253,0-.437.288-.529.529a2.393,2.393,0,0,0,.15,1.852,7.66,7.66,0,0,0,1.6,1.726,10.24,10.24,0,0,0,0-1.68,4.049,4.049,0,0,0-.656-2C328.477,340.821,328.247,340.522,327.982,340.522Z" fill="#407bff"/>
        <path id="Path_213" data-name="Path 213" d="M263.294,236.122s-2.657,12.436,1.231,23.33l-15.289,55.22s-40.138,69.715-38.93,70.014,20.707,11.941,20.707,11.941,38.953-60.431,44.6-68.472S304.5,258.543,304.5,258.543Z" fill="#263238"/>
        <path id="Path_214" data-name="Path 214" d="M278.4,241.207c-.748,2.232-6.178,8.352-7.006,10.906-.242.748-6.178-2.508-6.431-1.726,4.786,6.7,22.778,15.715,34.915,21.294,1.91-4.705,2.416-6.764,3.957-10.8,2.393-6.051,5-10.8,6.362-14.288C299.36,244.267,287.384,242.438,278.4,241.207Z" opacity="0.3"/>
        <path id="Path_215" data-name="Path 215" d="M373.067,252.469c-15.059-7.7-56.29-18.315-56.29-18.315L318.5,221.88l-48.455-9.56A115.714,115.714,0,0,0,264.3,229.3c-6.753,29.186,23.008,32.718,28.91,33.1l53.839,9.594-28.438,52,19.925,7.673s25.769-38.849,38.113-59.672C381.419,263.858,377.162,254.563,373.067,252.469Z" fill="#263238"/>
        <path id="Path_216" data-name="Path 216" d="M307.608,224.468l-20.707-4,.805-3.29,20.638,4Z" fill="#fff" opacity="0.3"/>
        <path id="Path_217" data-name="Path 217" d="M309.909,221.489l8.409,1.691-.472,3.359-8.605-1.76Z" fill="#fff" opacity="0.3"/>
        <path id="Path_218" data-name="Path 218" d="M271.888,214.1l14.242,2.761-.84,3.267-14.185-2.738Z" fill="#fff" opacity="0.3"/>
        <g id="Group_3" data-name="Group 3" opacity="0.3">
          <path id="Path_219" data-name="Path 219" d="M269.645,217.059l-1.357-.345,1.231-3.118.943.173Z" fill="#fff"/>
        </g>
        <path id="Path_220" data-name="Path 220" d="M316.812,234.04l-24.366-7.075c.495.15,15.91,3.451,24.653,5Z" opacity="0.3"/>
        <path id="Path_221" data-name="Path 221" d="M347.159,271.4l13.1-4.187s-9.054,8.352-16.037,9.56Z" opacity="0.3"/>
        <path id="Path_222" data-name="Path 222" d="M269.4,141.5c-.932,0-31.935,21.961-36.3,27.23s-13.046,44.314-13.046,44.314l11.631,2.9,14.185-37.377,26.459-13.494s6.35-12.1,6.523-12.655S269.4,141.5,269.4,141.5Z" fill="#407bff"/>
        <path id="Path_223" data-name="Path 223" d="M269.4,141.5c-.932,0-31.935,21.961-36.3,27.23s-13.046,44.314-13.046,44.314l11.631,2.9,14.185-37.377,26.459-13.494s6.35-12.1,6.523-12.655S269.4,141.5,269.4,141.5Z" fill="#fff" opacity="0.7"/>
        <path id="Path_224" data-name="Path 224" d="M382.063,208.224l-36.387-25.136s-12.056-34.374-15.8-39.8c-4.855-7.052-14.1-7.524-14.1-7.524l5.614,29.37s3.256,11.734,6.373,20.167c3.21,8.651,4.452,13.356,12.332,18.038,6.833,4.061,36.019,14.955,36.019,14.955C375.609,218.072,382.063,208.224,382.063,208.224Z" fill="#407bff"/>
        <path id="Path_225" data-name="Path 225" d="M382.063,208.224l-36.387-25.136s-12.056-34.374-15.8-39.8c-4.855-7.052-14.1-7.524-14.1-7.524l5.614,29.37s3.256,11.734,6.373,20.167c3.21,8.651,4.452,13.356,12.332,18.038,6.833,4.061,36.019,14.955,36.019,14.955C375.609,218.072,382.063,208.224,382.063,208.224Z" fill="#fff" opacity="0.7"/>
        <path id="Path_226" data-name="Path 226" d="M267.413,211.779s-2.485-.161-1.588-2.4a12.724,12.724,0,0,1,3.578-4.3l2.025-14.484L269.4,141.5l9.065-2.3,9.974-2.3,4.257-3.842,11.5-.541,5.648,3.129h5.936c0,.092,11.665,26.62,8.743,47.8s-5.016,34.512-5.51,35.916c-1,2.738-3.187,1.875-3.187,1.875Z" fill="#407bff"/>
        <path id="Path_227" data-name="Path 227" d="M267.413,211.779s-2.485-.161-1.588-2.4a12.724,12.724,0,0,1,3.578-4.3l2.025-14.484-1.012-24.515L269.4,141.5l9.065-2.3,9.974-2.3,4.257-3.842,11.2-.541,5.982,3.129h5.936c0,.092,11.665,26.62,8.743,47.8s-5.016,34.512-5.51,35.916c-1,2.738-3.187,1.875-3.187,1.875Z" fill="#fff" opacity="0.7"/>
        <path id="Path_228" data-name="Path 228" d="M298.635,217.152h0a.288.288,0,0,1-.265-.311,431.825,431.825,0,0,0,1.45-71.118.288.288,0,0,1,.265-.3.265.265,0,0,1,.3.265,431.675,431.675,0,0,1-1.438,71.21.276.276,0,0,1-.311.253Z" fill="#263238" opacity="0.1"/>
        <path id="Path_229" data-name="Path 229" d="M273.292,173.171l.322,7.639s20.04-14.794,24.009-19.741c5.131-6.373,5.522-9.894,5.522-9.894Z" opacity="0.2"/>
        <path id="Path_230" data-name="Path 230" d="M298.348,147.851l2.37,3.716s-34.052,25.148-65.827,27.276l-1.944,10.825,10.94,2s48.317-18.6,59.66-39.873l3.394-5.085-3.624-3.152-1.15.736Z" fill="#407bff"/>
        <path id="Path_231" data-name="Path 231" d="M325.026,177.037s1.058-14.955,1.265-22.629a109.993,109.993,0,0,1,1.438,11.8c.311,5.142-1.242,15.646-1.242,15.646Z" opacity="0.2"/>
        <path id="Path_232" data-name="Path 232" d="M288.983,137.566c.46.863,7.834,10.262,7.834,10.262l5.948-4.153s-5.165,5.672-5.2,5.752l-1.53.15Z" opacity="0.2"/>
        <path id="Path_233" data-name="Path 233" d="M303.317,143.56l4.441,1.944a38.422,38.422,0,0,0,2.048-5.752c.092-1.219,0-3.29,0-3.29h.6a14.645,14.645,0,0,1-.38,5.913c-.932,2.657-2.048,5.223-2.048,5.223Z" opacity="0.2"/>
        <path id="Path_234" data-name="Path 234" d="M345.675,183.065c.334,2.393-1.15,5.626-2.4,7.685,1.507-.564,3.21-1.242,3.934-2.669s1.265-1.53,1.15-3.129Z" opacity="0.2"/>
        <path id="Path_235" data-name="Path 235" d="M288.983,113.315s-10.147-7.892-9.836-10.676,1.921-1.99,1.921-1.99-3.67-6.557-.38-7.834,3.578-.173,3.578-.173-1.542-5.407,1.035-7.156c1.967-1.346,2.934,1.15,2.934,1.15s3.6-6.132,8.214-6.235c2.3.081,3.451,1.507,3.221,3.279v.23s9.134-4.441,13.563-2.071-1.093,5.4-1.093,5.4,9.031-1.323,10.952,2.3c1.53,2.842-2.427,4.958-2.427,4.958a8.593,8.593,0,0,1,2.726,1.484,3.589,3.589,0,0,1-1.979,6.293h-.081c-.472,0-1.334.173-1.7-.15,0,0,1.691,3.221-1.622,4.418s-5.062-2.634-5.062-2.634Z" fill="#263238"/>
        <path id="Path_236" data-name="Path 236" d="M292.952,134.529s.345-4.751-3.451-16.106c0,0,.6-.311.6-.322-.541-1.588-1.093-3.049-1.611-4.326l16.106,9.042c-.219,3.693,1.415,10.745,2.3,13.713l-3.8,7.075Z" fill="#e9b376"/>
        <path id="Path_237" data-name="Path 237" d="M305.1,127.926l-9.146-1.645c.943,2.784,3.578,6.005,9.894,6.005a26.883,26.883,0,0,1-.748-4.36Z" opacity="0.2"/>
        <path id="Path_238" data-name="Path 238" d="M314.292,95.116c2.013,3.555,3.014,11.5-2.853,10.112S310.841,89,314.292,95.116Z" fill="#263238"/>
        <path id="Path_239" data-name="Path 239" d="M287.994,106.091c1.5,9.928,2.14,15.554,7.639,20.19,8.271,6.971,19.925,1.438,21.432-8.766,1.357-9.2-1.311-23.871-11.447-26.885a13.8,13.8,0,0,0-17.624,15.462Z" fill="#e9b376"/>
        <path id="Path_240" data-name="Path 240" d="M302.558,107.713c.092,1.024.7,1.795,1.369,1.726s1.15-.943,1.047-1.967-.7-1.795-1.369-1.726S302.443,106.689,302.558,107.713Z" fill="#263238"/>
        <path id="Path_241" data-name="Path 241" d="M312.567,106.988c.092,1.024.713,1.806,1.38,1.737s1.15-.943,1.047-1.967-.713-1.795-1.381-1.737S312.475,106.01,312.567,106.988Z" fill="#263238"/>
        <path id="Path_242" data-name="Path 242" d="M309.265,106.747s3.681,4.8,4.9,6.764c-1.311,1.415-3.819,1.035-3.819,1.035Z" fill="#d58745"/>
        <path id="Path_243" data-name="Path 243" d="M299.832,102.318a.472.472,0,0,0,.46-.15,3.9,3.9,0,0,1,3.21-1.346.5.5,0,0,0,.552-.4.46.46,0,0,0-.4-.541,4.786,4.786,0,0,0-4.073,1.657.483.483,0,0,0,0,.679.426.426,0,0,0,.253.1Z" fill="#263238"/>
        <path id="Path_244" data-name="Path 244" d="M316.651,102.225a.426.426,0,0,0,.219-.161.5.5,0,0,0-.092-.679,4.705,4.705,0,0,0-4.28-.794.483.483,0,0,0-.288.621.472.472,0,0,0,.61.276,3.693,3.693,0,0,1,3.382.679.483.483,0,0,0,.449.058Z" fill="#263238"/>
        <path id="Path_245" data-name="Path 245" d="M307.712,121.357Z" fill="#263238"/>
        <path id="Path_246" data-name="Path 246" d="M309.115,117.422c-1.634-.449-4.6-1.4-6.143-2.853a4.752,4.752,0,0,0-.357,1.15,4.222,4.222,0,0,0,.069,2.059c.414,1.369,1.68,2.807,4.97,3.578h.057s1.772.38,2.485-3.658C310.231,117.7,309.794,117.606,309.115,117.422Z" fill="#263238"/>
        <path id="Path_247" data-name="Path 247" d="M309.115,117.422l-.575,1.15c-3.095-.736-5.177-1.668-5.925-2.83a4.75,4.75,0,0,1,.357-1.15C304.479,116.019,307.482,116.974,309.115,117.422Z" fill="#fff"/>
        <path id="Path_248" data-name="Path 248" d="M307.654,121.334c-3.29-.771-4.6-2.209-4.97-3.578a10.894,10.894,0,0,1,3.451,1.576,4.153,4.153,0,0,1,1.519,2Z" fill="#dc5753"/>
        <path id="Path_249" data-name="Path 249" d="M291.307,113.7a5.211,5.211,0,0,0,2.163-1.944,4.6,4.6,0,0,0,.219-2.692,25.639,25.639,0,0,0-.518-2.807c.909.414,1.956-.345,2.4-1.231a7.742,7.742,0,0,0,.4-4.383,3.29,3.29,0,0,0,3.118-1.15A2.5,2.5,0,0,0,299,96.3a28.576,28.576,0,0,0,11.021-1.15c-.23.46.081,1.012.414,1.415a8.674,8.674,0,0,0,5.418,3c.311,0,.69,0,.851-.23a.759.759,0,0,0,.057-.483,7.834,7.834,0,0,0-3.026-5.1,17.763,17.763,0,0,0-5.43-2.669,33.43,33.43,0,0,0-9.882-1.956,19.741,19.741,0,0,0-9.767,2.105,4.878,4.878,0,0,0-1.737,1.346,5.176,5.176,0,0,0-.805,1.921,34.513,34.513,0,0,0-.874,12.655" fill="#263238"/>
        <path id="Path_250" data-name="Path 250" d="M284.784,114.765a9.434,9.434,0,0,0,5.177,5.085c3.118,1.219,5.027-1.5,4.475-4.6-.506-2.807-2.738-6.822-6.005-6.707S283.611,111.9,284.784,114.765Z" fill="#e9b376"/>
        <path id="Path_251" data-name="Path 251" d="M291.641,114.673a.288.288,0,0,1-.276-.23,4.751,4.751,0,0,0-1.081-2.163,2.876,2.876,0,0,0-1.645-1.012,1.53,1.53,0,0,0-1.565.667.276.276,0,0,1-.391.115.288.288,0,0,1-.115-.391,2.105,2.105,0,0,1,2.163-.955,3.451,3.451,0,0,1,1.99,1.15,5.384,5.384,0,0,1,1.15,2.427.3.3,0,0,1-.23.345Z" opacity="0.2"/>
      </g>
      <g id="freepik--Hand--inject-3">
        <path id="Path_252" data-name="Path 252" d="M437.858,354.211l-42.117,63.848c-15.139,19.557-27.771,36.813-50.618,43.462l-81.035,30.566a29.5,29.5,0,0,0-18.6,22.214l3,16.037H161.518s1.15-62.9,6.465-81.875c4.981-17.774,17.394-33.362,42.876-38.481,21.191-4.291,101.938-19.476,117.6-19.983,6.661-.207,8.306,4.418,8,4.935l3.693-.414s43.428-38.32,52.919-47.592c7.351-7.179,19.626-3,19.626-3s13.1-12.1,22.468-6.155C435.177,337.726,443.794,343.881,437.858,354.211Z" fill="#db8c7e"/>
        <path id="Path_253" data-name="Path 253" d="M336.449,394.89c5.108,14.587-7.535,23.606-22.26,30.417s-51.63,19.016-51.63,19.016l-1.15,6.5,6.212-4.993s30.348-10.756,50.618-20.2c12.885-5.994,17.486-10.86,19.626-15.83a19.937,19.937,0,0,0,.817-13.126l-.46-2.2Z" opacity="0.3"/>
        <path id="Path_254" data-name="Path 254" d="M412.71,343.881s8.225,7.5,1.588,15.519c-5.591,6.753-51.251,65.366-51.251,65.366l5.821-4.774s47.167-55.634,50.158-60.5C423.432,352.221,416.529,343.8,412.71,343.881Z" opacity="0.3"/>
      </g>
    </g>
  </g>
</svg>
